<?xml version="1.0" encoding="UTF-8"?>
<svg xmlns="http://www.w3.org/2000/svg" xmlns:xlink="http://www.w3.org/1999/xlink" viewBox="0 0 1901.98 458.73">
  <defs>
    <style>
      .cls-1 {
        fill: url(#Nouvelle_nuance_de_dégradé_1-15);
      }

      .cls-2 {
        fill: url(#Nouvelle_nuance_de_dégradé_1-17);
      }

      .cls-3 {
        fill: url(#Nouvelle_nuance_de_dégradé_1-8);
      }

      .cls-4 {
        fill: url(#Nouvelle_nuance_de_dégradé_1-5);
      }

      .cls-5 {
        fill: url(#Nouvelle_nuance_de_dégradé_1-4);
      }

      .cls-6 {
        fill: url(#Nouvelle_nuance_de_dégradé_1-2);
      }

      .cls-7 {
        fill: #fff;
      }

      .cls-8 {
        fill: url(#Nouvelle_nuance_de_dégradé_1-9);
      }

      .cls-9 {
        fill: red;
      }

      .cls-10 {
        fill: url(#Nouvelle_nuance_de_dégradé_1-18);
      }

      .cls-11 {
        fill: url(#Nouvelle_nuance_de_dégradé_1-13);
      }

      .cls-12 {
        fill: url(#Nouvelle_nuance_de_dégradé_1-6);
      }

      .cls-13 {
        fill: url(#Nouvelle_nuance_de_dégradé_1-12);
      }

      .cls-14 {
        fill: url(#Nouvelle_nuance_de_dégradé_1-10);
      }

      .cls-15 {
        fill: url(#Nouvelle_nuance_de_dégradé_1);
      }

      .cls-16 {
        fill: url(#Dégradé_sans_nom_324);
      }

      .cls-17 {
        fill: url(#Nouvelle_nuance_de_dégradé_1-3);
      }

      .cls-18 {
        fill: url(#Nouvelle_nuance_de_dégradé_1-16);
      }

      .cls-19 {
        fill: #ffc900;
      }

      .cls-20 {
        fill: url(#Nouvelle_nuance_de_dégradé_1-7);
      }

      .cls-21 {
        fill: url(#Nouvelle_nuance_de_dégradé_1-11);
      }

      .cls-22 {
        fill: url(#Nouvelle_nuance_de_dégradé_1-14);
      }
    </style>
    <linearGradient id="Nouvelle_nuance_de_dégradé_1" data-name="Nouvelle nuance de dégradé 1" x1="77.69" y1="301.63" x2="77.69" y2="453.81" gradientUnits="userSpaceOnUse">
      <stop offset="0" stop-color="#c40c09"/>
      <stop offset=".11" stop-color="#c5110b"/>
      <stop offset=".25" stop-color="#c82011"/>
      <stop offset=".4" stop-color="#cf391b"/>
      <stop offset=".56" stop-color="#d75b2a"/>
      <stop offset=".73" stop-color="#e2883d"/>
      <stop offset=".9" stop-color="#efbe53"/>
      <stop offset="1" stop-color="#f8e062"/>
    </linearGradient>
    <linearGradient id="Nouvelle_nuance_de_dégradé_1-2" data-name="Nouvelle nuance de dégradé 1" x1="183.35" x2="183.35" y2="446.54" xlink:href="#Nouvelle_nuance_de_dégradé_1"/>
    <linearGradient id="Nouvelle_nuance_de_dégradé_1-3" data-name="Nouvelle nuance de dégradé 1" x1="293.94" x2="293.94" y2="439.88" xlink:href="#Nouvelle_nuance_de_dégradé_1"/>
    <linearGradient id="Nouvelle_nuance_de_dégradé_1-4" data-name="Nouvelle nuance de dégradé 1" x1="384.5" y1="301.63" x2="384.5" y2="432.82" xlink:href="#Nouvelle_nuance_de_dégradé_1"/>
    <linearGradient id="Nouvelle_nuance_de_dégradé_1-5" data-name="Nouvelle nuance de dégradé 1" x1="496.83" y1="301.63" x2="496.83" y2="428.97" xlink:href="#Nouvelle_nuance_de_dégradé_1"/>
    <linearGradient id="Nouvelle_nuance_de_dégradé_1-6" data-name="Nouvelle nuance de dégradé 1" x1="571.56" y1="301.63" x2="571.56" y2="424.92" xlink:href="#Nouvelle_nuance_de_dégradé_1"/>
    <linearGradient id="Nouvelle_nuance_de_dégradé_1-7" data-name="Nouvelle nuance de dégradé 1" x1="653.97" x2="653.97" y2="422.54" xlink:href="#Nouvelle_nuance_de_dégradé_1"/>
    <linearGradient id="Nouvelle_nuance_de_dégradé_1-8" data-name="Nouvelle nuance de dégradé 1" x1="728.18" x2="728.18" y2="420.69" xlink:href="#Nouvelle_nuance_de_dégradé_1"/>
    <linearGradient id="Nouvelle_nuance_de_dégradé_1-9" data-name="Nouvelle nuance de dégradé 1" x1="806.98" x2="806.98" y2="419.77" xlink:href="#Nouvelle_nuance_de_dégradé_1"/>
    <linearGradient id="Nouvelle_nuance_de_dégradé_1-10" data-name="Nouvelle nuance de dégradé 1" x1="910.04" x2="910.04" y2="418.53" xlink:href="#Nouvelle_nuance_de_dégradé_1"/>
    <linearGradient id="Nouvelle_nuance_de_dégradé_1-11" data-name="Nouvelle nuance de dégradé 1" x1="1081.2" y1="301.63" x2="1081.2" y2="419.04" xlink:href="#Nouvelle_nuance_de_dégradé_1"/>
    <linearGradient id="Nouvelle_nuance_de_dégradé_1-12" data-name="Nouvelle nuance de dégradé 1" x1="1186.83" y1="301.63" x2="1186.83" y2="421.54" xlink:href="#Nouvelle_nuance_de_dégradé_1"/>
    <linearGradient id="Nouvelle_nuance_de_dégradé_1-13" data-name="Nouvelle nuance de dégradé 1" x1="1294.8" x2="1294.8" y2="424.59" xlink:href="#Nouvelle_nuance_de_dégradé_1"/>
    <linearGradient id="Nouvelle_nuance_de_dégradé_1-14" data-name="Nouvelle nuance de dégradé 1" x1="1407.39" x2="1407.39" y2="427.39" xlink:href="#Nouvelle_nuance_de_dégradé_1"/>
    <linearGradient id="Nouvelle_nuance_de_dégradé_1-15" data-name="Nouvelle nuance de dégradé 1" x1="1504.51" x2="1504.51" y2="432.99" xlink:href="#Nouvelle_nuance_de_dégradé_1"/>
    <linearGradient id="Nouvelle_nuance_de_dégradé_1-16" data-name="Nouvelle nuance de dégradé 1" x1="1613.98" x2="1613.98" y2="439.41" xlink:href="#Nouvelle_nuance_de_dégradé_1"/>
    <linearGradient id="Nouvelle_nuance_de_dégradé_1-17" data-name="Nouvelle nuance de dégradé 1" x1="1721.81" y1="301.63" x2="1721.81" y2="446.37" xlink:href="#Nouvelle_nuance_de_dégradé_1"/>
    <linearGradient id="Nouvelle_nuance_de_dégradé_1-18" data-name="Nouvelle nuance de dégradé 1" x1="1831.48" y1="301.63" x2="1831.48" y2="452" xlink:href="#Nouvelle_nuance_de_dégradé_1"/>
    <linearGradient id="Dégradé_sans_nom_324" data-name="Dégradé sans nom 324" x1="957.92" y1="301.63" x2="957.92" y2="453.81" gradientUnits="userSpaceOnUse">
      <stop offset="0" stop-color="#5d0000"/>
      <stop offset=".12" stop-color="#670101"/>
      <stop offset=".33" stop-color="#840604"/>
      <stop offset=".61" stop-color="#b30e0a"/>
      <stop offset=".94" stop-color="#f31911"/>
      <stop offset="1" stop-color="#ff1c13"/>
    </linearGradient>
  </defs>
  <g id="Calque_1" data-name="Calque 1">
    <g>
      <path d="M52.83,0v99.93c.45.45.95.73,1.51.84.56.12,1.18.39,1.85.84L95.56,0h40.04l-41.72,107h-25.57c2.02,1.12,3.92,2.13,5.72,3.03,1.79.9,3.42,1.68,4.88,2.36,1.46.67,2.41,1.24,2.86,1.68,6.73,3.59,12.11,7.4,16.15,11.44,4.04,4.04,7.29,7.85,9.76,11.44,2.47,4.26,4.26,8.41,5.38,12.45l30.62,102.96h-42.73l-29.95-100.94c-1.35-3.36-3.42-7.12-6.22-11.27-2.81-4.15-6.79-7.79-11.94-10.94v123.15H12.79V18.84c0-1.79-.62-3.81-1.85-6.06-1.24-2.24-2.75-4.26-4.54-6.06C4.59,4.49,2.47,2.25,0,0h52.83Z"/>
      <path d="M198.18,252.35c-13.01,0-23.05-4.26-30.11-12.79-7.07-8.52-10.6-19.74-10.6-33.65V46.43c0-14.58,3.53-25.96,10.6-34.15,7.07-8.19,17.1-12.28,30.11-12.28h36.34c13.23,0,23.33,4.1,30.28,12.28,6.95,8.19,10.43,19.57,10.43,34.15v159.49c0,13.91-3.48,25.12-10.43,33.65-6.96,8.53-17.05,12.79-30.28,12.79h-36.34ZM185.05,18.51c2.47,1.12,4.59,2.36,6.39,3.7,1.79,1.13,3.31,2.47,4.54,4.04,1.23,1.57,1.85,3.25,1.85,5.05v190.44c.22,3.36,1.57,6.22,4.04,8.58,2.47,2.36,5.38,3.53,8.75,3.53h11.44c3.81,0,6.95-1.23,9.42-3.7s3.7-5.6,3.7-9.42V31.29c0-3.59-1.24-6.61-3.7-9.08-2.47-2.47-5.61-3.7-9.42-3.7h-37.01Z"/>
      <path d="M343.53,0l41.39,102.96L425.96,0h40.04v252.35h-40.04V102.29l9.08-39.03-39.37,97.24h-22.21l-38.69-97.24v.67l8.75,38.36v150.06h-40.04V18.84c0-1.79-.62-3.81-1.85-6.06-1.24-2.24-2.75-4.26-4.54-6.06-1.8-2.24-3.93-4.48-6.39-6.73h52.83Z"/>
      <path d="M589.83,0c13.01,0,23.05,4.1,30.11,12.28,7.07,8.19,10.6,19.57,10.6,34.15v48.79c0,12.11-2.81,22.43-8.41,30.96,5.6,8.08,8.41,18.51,8.41,31.29v48.45c0,13.91-3.53,25.12-10.6,33.65-7.07,8.53-17.11,12.79-30.11,12.79h-77.05V18.84c0-1.79-.62-3.81-1.85-6.06-1.24-2.24-2.75-4.26-4.54-6.06-1.8-2.24-3.93-4.48-6.39-6.73h89.84ZM540.37,18.51c2.24,1.12,4.37,2.36,6.39,3.7,1.57,1.13,2.97,2.47,4.21,4.04,1.23,1.57,1.85,3.25,1.85,5.05v79.74h28.26c2.69-.89,4.93-2.41,6.73-4.54,1.79-2.13,2.69-4.76,2.69-7.91V31.29c0-3.59-1.29-6.61-3.87-9.08-2.58-2.47-5.67-3.7-9.25-3.7h-37.01ZM577.38,233.85c3.59,0,6.67-1.23,9.25-3.7,2.58-2.47,3.87-5.6,3.87-9.42v-78.06c0-3.81-1.29-6.95-3.87-9.42-2.58-2.47-5.67-3.7-9.25-3.7h-24.56v104.3h24.56Z"/>
      <path d="M650.73,252.35l37.35-237.55c-.67-1.79-1.68-3.53-3.03-5.22-1.35-1.68-2.58-3.31-3.7-4.88-1.57-1.57-3.14-3.14-4.71-4.71h69.31l39.7,252.35h-36l-8.75-55.52c-.45-1.35-1.4-2.8-2.86-4.37-1.46-1.57-3.82-3.14-7.07-4.71-3.25-1.57-7.52-3.03-12.79-4.37-5.27-1.35-11.94-2.36-20.02-3.03l-11.44,72h-36ZM701.2,161.5h34.32l-13.8-86.14-3.36-45.09-3.7,45.76-13.46,85.46Z"/>
      <path d="M912.51,0v38.36-.67c-.9-4.04-3.31-7.29-7.23-9.76-3.93-2.47-8.41-4.37-13.46-5.72-5.05-1.35-10.04-2.24-14.97-2.69-4.94-.45-8.97-.78-12.11-1.01h-8.41c1.12.45,3.03,1.57,5.72,3.36,2.69,1.8,4.59,3.93,5.72,6.39v224.09h-40.04V18.51l-39.03-.34-.34.34c0-1.79-.62-3.81-1.85-6.06-1.24-2.24-2.75-4.26-4.54-6.06-1.8-2.02-3.93-4.15-6.39-6.39h136.94Z"/>
      <path d="M1063.38,0l41.39,102.96L1145.81,0h40.04v252.35h-40.04V102.29l9.09-39.03-39.37,97.24h-22.21l-38.69-97.24v.67l8.75,38.36v150.06h-40.04V18.84c0-1.79-.62-3.81-1.85-6.06-1.24-2.24-2.75-4.26-4.54-6.06-1.8-2.24-3.93-4.48-6.39-6.73h52.82Z"/>
      <path d="M1253.48,252.35c-13.01,0-23.05-4.26-30.11-12.79-7.07-8.52-10.6-19.74-10.6-33.65V46.43c0-14.58,3.53-25.96,10.6-34.15,7.07-8.19,17.1-12.28,30.11-12.28h36.34c13.23,0,23.33,4.1,30.28,12.28,6.95,8.19,10.43,19.57,10.43,34.15v159.49c0,13.91-3.48,25.12-10.43,33.65-6.95,8.53-17.05,12.79-30.28,12.79h-36.34ZM1240.35,18.51c2.47,1.12,4.6,2.36,6.39,3.7,1.79,1.13,3.31,2.47,4.54,4.04,1.23,1.57,1.85,3.25,1.85,5.05v190.44c.22,3.36,1.57,6.22,4.04,8.58,2.47,2.36,5.38,3.53,8.75,3.53h11.44c3.81,0,6.95-1.23,9.42-3.7,2.47-2.47,3.7-5.6,3.7-9.42V31.29c0-3.59-1.24-6.61-3.7-9.08-2.47-2.47-5.61-3.7-9.42-3.7h-37.01Z"/>
      <path d="M1435.84,0c13.01,0,23.05,4.1,30.12,12.28,7.06,8.19,10.6,19.57,10.6,34.15v54.17c0,12.79-2.92,23.27-8.75,31.46-5.83,8.19-14.25,13.07-25.23,14.64,4.26,3.14,7.68,6.34,10.26,9.59,2.58,3.25,4.65,6.22,6.22,8.92,1.57,3.14,2.8,6.17,3.7,9.08l21.2,78.06h-42.73l-20.52-75.37c-2.24-6.28-5.16-11.1-8.75-14.47-3.59-3.36-7.96-6.84-13.12-10.43v100.27h-40.04V18.84c0-1.79-.62-3.81-1.85-6.06-1.23-2.24-2.75-4.26-4.54-6.06-1.8-2.24-3.93-4.48-6.39-6.73h89.84ZM1386.38,18.51c2.24,1.12,4.37,2.36,6.39,3.7,1.57,1.13,2.97,2.47,4.21,4.04,1.23,1.57,1.85,3.25,1.85,5.05v97.58h24.56c3.59,0,6.67-1.29,9.25-3.87,2.58-2.58,3.87-5.66,3.87-9.25V31.29c0-3.59-1.29-6.61-3.87-9.08-2.58-2.47-5.67-3.7-9.25-3.7h-37.01Z"/>
      <path d="M1615.51,0v38.36-.67c-.9-4.04-3.31-7.29-7.23-9.76-3.93-2.47-8.41-4.37-13.46-5.72-5.05-1.35-10.04-2.24-14.97-2.69-4.94-.45-8.97-.78-12.11-1.01h-8.41c1.12.45,3.03,1.57,5.72,3.36,2.69,1.8,4.59,3.93,5.72,6.39v224.09h-40.04V18.51l-39.03-.34-.34.34c0-1.79-.62-3.81-1.85-6.06-1.24-2.24-2.75-4.26-4.54-6.06-1.8-2.02-3.93-4.15-6.39-6.39h136.94Z"/>
      <path d="M1760.29,0v37.68c0-1.12-.56-2.69-1.68-4.71-1.12-2.02-3.7-4.15-7.74-6.39-4.04-2.24-10.04-4.21-18-5.89-7.96-1.68-18.9-2.52-32.81-2.52l-18.17.34c2.24,1.12,4.37,2.36,6.39,3.7,1.57,1.13,2.97,2.47,4.21,4.04,1.23,1.57,1.85,3.25,1.85,5.05v79.74h45.76v37.35c0-.89-.45-2.24-1.35-4.04-.9-1.79-2.81-3.64-5.72-5.55-2.92-1.9-7.29-3.75-13.12-5.55-5.83-1.79-13.68-3.03-23.55-3.7h-2.02v104.64h65.95v18.17h-105.99V18.84c0-1.79-.62-3.81-1.85-6.06-1.23-2.24-2.75-4.26-4.54-6.06-1.8-2.24-3.93-4.48-6.39-6.73h118.77Z"/>
      <path d="M1839.39,0v233.85h62.58v18.51h-102.62V18.84c0-1.79-.62-3.81-1.85-6.06-1.23-2.24-2.75-4.26-4.54-6.06-1.8-2.24-3.93-4.48-6.39-6.73h52.83Z"/>
    </g>
    <g>
      <path class="cls-7" d="M52.83,0v99.93c.45.45.95.73,1.51.84.56.12,1.18.39,1.85.84L95.56,0h40.04l-41.72,107h-25.57c2.02,1.12,3.92,2.13,5.72,3.03,1.79.9,3.42,1.68,4.88,2.36,1.46.67,2.41,1.24,2.86,1.68,6.73,3.59,12.11,7.4,16.15,11.44,4.04,4.04,7.29,7.85,9.76,11.44,2.47,4.26,4.26,8.41,5.38,12.45l30.62,102.96h-42.73l-29.95-100.94c-1.35-3.36-3.42-7.12-6.22-11.27-2.81-4.15-6.79-7.79-11.94-10.94v123.15H12.79V18.84c0-1.79-.62-3.81-1.85-6.06-1.24-2.24-2.75-4.26-4.54-6.06C4.59,4.49,2.47,2.25,0,0h52.83Z"/>
      <path class="cls-7" d="M198.18,252.35c-13.01,0-23.05-4.26-30.11-12.79-7.07-8.52-10.6-19.74-10.6-33.65V46.43c0-14.58,3.53-25.96,10.6-34.15,7.07-8.19,17.1-12.28,30.11-12.28h36.34c13.23,0,23.33,4.1,30.28,12.28,6.95,8.19,10.43,19.57,10.43,34.15v159.49c0,13.91-3.48,25.12-10.43,33.65-6.96,8.53-17.05,12.79-30.28,12.79h-36.34ZM185.05,18.51c2.47,1.12,4.59,2.36,6.39,3.7,1.79,1.13,3.31,2.47,4.54,4.04,1.23,1.57,1.85,3.25,1.85,5.05v190.44c.22,3.36,1.57,6.22,4.04,8.58,2.47,2.36,5.38,3.53,8.75,3.53h11.44c3.81,0,6.95-1.23,9.42-3.7s3.7-5.6,3.7-9.42V31.29c0-3.59-1.24-6.61-3.7-9.08-2.47-2.47-5.61-3.7-9.42-3.7h-37.01Z"/>
      <path class="cls-7" d="M343.53,0l41.39,102.96L425.96,0h40.04v252.35h-40.04V102.29l9.08-39.03-39.37,97.24h-22.21l-38.69-97.24v.67l8.75,38.36v150.06h-40.04V18.84c0-1.79-.62-3.81-1.85-6.06-1.24-2.24-2.75-4.26-4.54-6.06-1.8-2.24-3.93-4.48-6.39-6.73h52.83Z"/>
      <path class="cls-7" d="M589.83,0c13.01,0,23.05,4.1,30.11,12.28,7.07,8.19,10.6,19.57,10.6,34.15v48.79c0,12.11-2.81,22.43-8.41,30.96,5.6,8.08,8.41,18.51,8.41,31.29v48.45c0,13.91-3.53,25.12-10.6,33.65-7.07,8.53-17.11,12.79-30.11,12.79h-77.05V18.84c0-1.79-.62-3.81-1.85-6.06-1.24-2.24-2.75-4.26-4.54-6.06-1.8-2.24-3.93-4.48-6.39-6.73h89.84ZM540.37,18.51c2.24,1.12,4.37,2.36,6.39,3.7,1.57,1.13,2.97,2.47,4.21,4.04,1.23,1.57,1.85,3.25,1.85,5.05v79.74h28.26c2.69-.89,4.93-2.41,6.73-4.54,1.79-2.13,2.69-4.76,2.69-7.91V31.29c0-3.59-1.29-6.61-3.87-9.08-2.58-2.47-5.67-3.7-9.25-3.7h-37.01ZM577.38,233.85c3.59,0,6.67-1.23,9.25-3.7,2.58-2.47,3.87-5.6,3.87-9.42v-78.06c0-3.81-1.29-6.95-3.87-9.42-2.58-2.47-5.67-3.7-9.25-3.7h-24.56v104.3h24.56Z"/>
      <path class="cls-7" d="M650.73,252.35l37.35-237.55c-.67-1.79-1.68-3.53-3.03-5.22-1.35-1.68-2.58-3.31-3.7-4.88-1.57-1.57-3.14-3.14-4.71-4.71h69.31l39.7,252.35h-36l-8.75-55.52c-.45-1.35-1.4-2.8-2.86-4.37-1.46-1.57-3.82-3.14-7.07-4.71-3.25-1.57-7.52-3.03-12.79-4.37-5.27-1.35-11.94-2.36-20.02-3.03l-11.44,72h-36ZM701.2,161.5h34.32l-13.8-86.14-3.36-45.09-3.7,45.76-13.46,85.46Z"/>
      <path class="cls-7" d="M912.51,0v38.36-.67c-.9-4.04-3.31-7.29-7.23-9.76-3.93-2.47-8.41-4.37-13.46-5.72-5.05-1.35-10.04-2.24-14.97-2.69-4.94-.45-8.97-.78-12.11-1.01h-8.41c1.12.45,3.03,1.57,5.72,3.36,2.69,1.8,4.59,3.93,5.72,6.39v224.09h-40.04V18.51l-39.03-.34-.34.34c0-1.79-.62-3.81-1.85-6.06-1.24-2.24-2.75-4.26-4.54-6.06-1.8-2.02-3.93-4.15-6.39-6.39h136.94Z"/>
      <path class="cls-7" d="M1063.38,0l41.39,102.96L1145.81,0h40.04v252.35h-40.04V102.29l9.09-39.03-39.37,97.24h-22.21l-38.69-97.24v.67l8.75,38.36v150.06h-40.04V18.84c0-1.79-.62-3.81-1.85-6.06-1.24-2.24-2.75-4.26-4.54-6.06-1.8-2.24-3.93-4.48-6.39-6.73h52.82Z"/>
      <path class="cls-7" d="M1253.48,252.35c-13.01,0-23.05-4.26-30.11-12.79-7.07-8.52-10.6-19.74-10.6-33.65V46.43c0-14.58,3.53-25.96,10.6-34.15,7.07-8.19,17.1-12.28,30.11-12.28h36.34c13.23,0,23.33,4.1,30.28,12.28,6.95,8.19,10.43,19.57,10.43,34.15v159.49c0,13.91-3.48,25.12-10.43,33.65-6.95,8.53-17.05,12.79-30.28,12.79h-36.34ZM1240.35,18.51c2.47,1.12,4.6,2.36,6.39,3.7,1.79,1.13,3.31,2.47,4.54,4.04,1.23,1.57,1.85,3.25,1.85,5.05v190.44c.22,3.36,1.57,6.22,4.04,8.58,2.47,2.36,5.38,3.53,8.75,3.53h11.44c3.81,0,6.95-1.23,9.42-3.7,2.47-2.47,3.7-5.6,3.7-9.42V31.29c0-3.59-1.24-6.61-3.7-9.08-2.47-2.47-5.61-3.7-9.42-3.7h-37.01Z"/>
      <path class="cls-7" d="M1435.84,0c13.01,0,23.05,4.1,30.12,12.28,7.06,8.19,10.6,19.57,10.6,34.15v54.17c0,12.79-2.92,23.27-8.75,31.46-5.83,8.19-14.25,13.07-25.23,14.64,4.26,3.14,7.68,6.34,10.26,9.59,2.58,3.25,4.65,6.22,6.22,8.92,1.57,3.14,2.8,6.17,3.7,9.08l21.2,78.06h-42.73l-20.52-75.37c-2.24-6.28-5.16-11.1-8.75-14.47-3.59-3.36-7.96-6.84-13.12-10.43v100.27h-40.04V18.84c0-1.79-.62-3.81-1.85-6.06-1.23-2.24-2.75-4.26-4.54-6.06-1.8-2.24-3.93-4.48-6.39-6.73h89.84ZM1386.38,18.51c2.24,1.12,4.37,2.36,6.39,3.7,1.57,1.13,2.97,2.47,4.21,4.04,1.23,1.57,1.85,3.25,1.85,5.05v97.58h24.56c3.59,0,6.67-1.29,9.25-3.87,2.58-2.58,3.87-5.66,3.87-9.25V31.29c0-3.59-1.29-6.61-3.87-9.08-2.58-2.47-5.67-3.7-9.25-3.7h-37.01Z"/>
      <path class="cls-7" d="M1615.51,0v38.36-.67c-.9-4.04-3.31-7.29-7.23-9.76-3.93-2.47-8.41-4.37-13.46-5.72-5.05-1.35-10.04-2.24-14.97-2.69-4.94-.45-8.97-.78-12.11-1.01h-8.41c1.12.45,3.03,1.57,5.72,3.36,2.69,1.8,4.59,3.93,5.72,6.39v224.09h-40.04V18.51l-39.03-.34-.34.34c0-1.79-.62-3.81-1.85-6.06-1.24-2.24-2.75-4.26-4.54-6.06-1.8-2.02-3.93-4.15-6.39-6.39h136.94Z"/>
      <path class="cls-7" d="M1760.29,0v37.68c0-1.12-.56-2.69-1.68-4.71-1.12-2.02-3.7-4.15-7.74-6.39-4.04-2.24-10.04-4.21-18-5.89-7.96-1.68-18.9-2.52-32.81-2.52l-18.17.34c2.24,1.12,4.37,2.36,6.39,3.7,1.57,1.13,2.97,2.47,4.21,4.04,1.23,1.57,1.85,3.25,1.85,5.05v79.74h45.76v37.35c0-.89-.45-2.24-1.35-4.04-.9-1.79-2.81-3.64-5.72-5.55-2.92-1.9-7.29-3.75-13.12-5.55-5.83-1.79-13.68-3.03-23.55-3.7h-2.02v104.64h65.95v18.17h-105.99V18.84c0-1.79-.62-3.81-1.85-6.06-1.23-2.24-2.75-4.26-4.54-6.06-1.8-2.24-3.93-4.48-6.39-6.73h118.77Z"/>
      <path class="cls-7" d="M1839.39,0v233.85h62.58v18.51h-102.62V18.84c0-1.79-.62-3.81-1.85-6.06-1.23-2.24-2.75-4.26-4.54-6.06-1.8-2.24-3.93-4.48-6.39-6.73h52.83Z"/>
    </g>
    <g>
      <path class="cls-19" d="M52.83,0v99.93c.45.45.95.73,1.51.84.56.12,1.18.39,1.85.84L95.56,0h40.04l-41.72,107h-25.57c2.02,1.12,3.92,2.13,5.72,3.03,1.79.9,3.42,1.68,4.88,2.36,1.46.67,2.41,1.24,2.86,1.68,6.73,3.59,12.11,7.4,16.15,11.44,4.04,4.04,7.29,7.85,9.76,11.44,2.47,4.26,4.26,8.41,5.38,12.45l30.62,102.96h-42.73l-29.95-100.94c-1.35-3.36-3.42-7.12-6.22-11.27-2.81-4.15-6.79-7.79-11.94-10.94v123.15H12.79V18.84c0-1.79-.62-3.81-1.85-6.06-1.24-2.24-2.75-4.26-4.54-6.06C4.59,4.49,2.47,2.25,0,0h52.83Z"/>
      <path class="cls-19" d="M198.18,252.35c-13.01,0-23.05-4.26-30.11-12.79-7.07-8.52-10.6-19.74-10.6-33.65V46.43c0-14.58,3.53-25.96,10.6-34.15,7.07-8.19,17.1-12.28,30.11-12.28h36.34c13.23,0,23.33,4.1,30.28,12.28,6.95,8.19,10.43,19.57,10.43,34.15v159.49c0,13.91-3.48,25.12-10.43,33.65-6.96,8.53-17.05,12.79-30.28,12.79h-36.34ZM185.05,18.51c2.47,1.12,4.59,2.36,6.39,3.7,1.79,1.13,3.31,2.47,4.54,4.04,1.23,1.57,1.85,3.25,1.85,5.05v190.44c.22,3.36,1.57,6.22,4.04,8.58,2.47,2.36,5.38,3.53,8.75,3.53h11.44c3.81,0,6.95-1.23,9.42-3.7s3.7-5.6,3.7-9.42V31.29c0-3.59-1.24-6.61-3.7-9.08-2.47-2.47-5.61-3.7-9.42-3.7h-37.01Z"/>
      <path class="cls-19" d="M343.53,0l41.39,102.96L425.96,0h40.04v252.35h-40.04V102.29l9.08-39.03-39.37,97.24h-22.21l-38.69-97.24v.67l8.75,38.36v150.06h-40.04V18.84c0-1.79-.62-3.81-1.85-6.06-1.24-2.24-2.75-4.26-4.54-6.06-1.8-2.24-3.93-4.48-6.39-6.73h52.83Z"/>
      <path class="cls-19" d="M589.83,0c13.01,0,23.05,4.1,30.11,12.28,7.07,8.19,10.6,19.57,10.6,34.15v48.79c0,12.11-2.81,22.43-8.41,30.96,5.6,8.08,8.41,18.51,8.41,31.29v48.45c0,13.91-3.53,25.12-10.6,33.65-7.07,8.53-17.11,12.79-30.11,12.79h-77.05V18.84c0-1.79-.62-3.81-1.85-6.06-1.24-2.24-2.75-4.26-4.54-6.06-1.8-2.24-3.93-4.48-6.39-6.73h89.84ZM540.37,18.51c2.24,1.12,4.37,2.36,6.39,3.7,1.57,1.13,2.97,2.47,4.21,4.04,1.23,1.57,1.85,3.25,1.85,5.05v79.74h28.26c2.69-.89,4.93-2.41,6.73-4.54,1.79-2.13,2.69-4.76,2.69-7.91V31.29c0-3.59-1.29-6.61-3.87-9.08-2.58-2.47-5.67-3.7-9.25-3.7h-37.01ZM577.38,233.85c3.59,0,6.67-1.23,9.25-3.7,2.58-2.47,3.87-5.6,3.87-9.42v-78.06c0-3.81-1.29-6.95-3.87-9.42-2.58-2.47-5.67-3.7-9.25-3.7h-24.56v104.3h24.56Z"/>
      <path class="cls-19" d="M650.73,252.35l37.35-237.55c-.67-1.79-1.68-3.53-3.03-5.22-1.35-1.68-2.58-3.31-3.7-4.88-1.57-1.57-3.14-3.14-4.71-4.71h69.31l39.7,252.35h-36l-8.75-55.52c-.45-1.35-1.4-2.8-2.86-4.37-1.46-1.57-3.82-3.14-7.07-4.71-3.25-1.57-7.52-3.03-12.79-4.37-5.27-1.35-11.94-2.36-20.02-3.03l-11.44,72h-36ZM701.2,161.5h34.32l-13.8-86.14-3.36-45.09-3.7,45.76-13.46,85.46Z"/>
      <path class="cls-19" d="M912.51,0v38.36-.67c-.9-4.04-3.31-7.29-7.23-9.76-3.93-2.47-8.41-4.37-13.46-5.72-5.05-1.35-10.04-2.24-14.97-2.69-4.94-.45-8.97-.78-12.11-1.01h-8.41c1.12.45,3.03,1.57,5.72,3.36,2.69,1.8,4.59,3.93,5.72,6.39v224.09h-40.04V18.51l-39.03-.34-.34.34c0-1.79-.62-3.81-1.85-6.06-1.24-2.24-2.75-4.26-4.54-6.06-1.8-2.02-3.93-4.15-6.39-6.39h136.94Z"/>
      <path class="cls-19" d="M1063.38,0l41.39,102.96L1145.81,0h40.04v252.35h-40.04V102.29l9.09-39.03-39.37,97.24h-22.21l-38.69-97.24v.67l8.75,38.36v150.06h-40.04V18.84c0-1.79-.62-3.81-1.85-6.06-1.24-2.24-2.75-4.26-4.54-6.06-1.8-2.24-3.93-4.48-6.39-6.73h52.82Z"/>
      <path class="cls-19" d="M1253.48,252.35c-13.01,0-23.05-4.26-30.11-12.79-7.07-8.52-10.6-19.74-10.6-33.65V46.43c0-14.58,3.53-25.96,10.6-34.15,7.07-8.19,17.1-12.28,30.11-12.28h36.34c13.23,0,23.33,4.1,30.28,12.28,6.95,8.19,10.43,19.57,10.43,34.15v159.49c0,13.91-3.48,25.12-10.43,33.65-6.95,8.53-17.05,12.79-30.28,12.79h-36.34ZM1240.35,18.51c2.47,1.12,4.6,2.36,6.39,3.7,1.79,1.13,3.31,2.47,4.54,4.04,1.23,1.57,1.85,3.25,1.85,5.05v190.44c.22,3.36,1.57,6.22,4.04,8.58,2.47,2.36,5.38,3.53,8.75,3.53h11.44c3.81,0,6.95-1.23,9.42-3.7,2.47-2.47,3.7-5.6,3.7-9.42V31.29c0-3.59-1.24-6.61-3.7-9.08-2.47-2.47-5.61-3.7-9.42-3.7h-37.01Z"/>
      <path class="cls-19" d="M1435.84,0c13.01,0,23.05,4.1,30.12,12.28,7.06,8.19,10.6,19.57,10.6,34.15v54.17c0,12.79-2.92,23.27-8.75,31.46-5.83,8.19-14.25,13.07-25.23,14.64,4.26,3.14,7.68,6.34,10.26,9.59,2.58,3.25,4.65,6.22,6.22,8.92,1.57,3.14,2.8,6.17,3.7,9.08l21.2,78.06h-42.73l-20.52-75.37c-2.24-6.28-5.16-11.1-8.75-14.47-3.59-3.36-7.96-6.84-13.12-10.43v100.27h-40.04V18.84c0-1.79-.62-3.81-1.85-6.06-1.23-2.24-2.75-4.26-4.54-6.06-1.8-2.24-3.93-4.48-6.39-6.73h89.84ZM1386.38,18.51c2.24,1.12,4.37,2.36,6.39,3.7,1.57,1.13,2.97,2.47,4.21,4.04,1.23,1.57,1.85,3.25,1.85,5.05v97.58h24.56c3.59,0,6.67-1.29,9.25-3.87,2.58-2.58,3.87-5.66,3.87-9.25V31.29c0-3.59-1.29-6.61-3.87-9.08-2.58-2.47-5.67-3.7-9.25-3.7h-37.01Z"/>
      <path class="cls-19" d="M1615.51,0v38.36-.67c-.9-4.04-3.31-7.29-7.23-9.76-3.93-2.47-8.41-4.37-13.46-5.72-5.05-1.35-10.04-2.24-14.97-2.69-4.94-.45-8.97-.78-12.11-1.01h-8.41c1.12.45,3.03,1.57,5.72,3.36,2.69,1.8,4.59,3.93,5.72,6.39v224.09h-40.04V18.51l-39.03-.34-.34.34c0-1.79-.62-3.81-1.85-6.06-1.24-2.24-2.75-4.26-4.54-6.06-1.8-2.02-3.93-4.15-6.39-6.39h136.94Z"/>
      <path class="cls-19" d="M1760.29,0v37.68c0-1.12-.56-2.69-1.68-4.71-1.12-2.02-3.7-4.15-7.74-6.39-4.04-2.24-10.04-4.21-18-5.89-7.96-1.68-18.9-2.52-32.81-2.52l-18.17.34c2.24,1.12,4.37,2.36,6.39,3.7,1.57,1.13,2.97,2.47,4.21,4.04,1.23,1.57,1.85,3.25,1.85,5.05v79.74h45.76v37.35c0-.89-.45-2.24-1.35-4.04-.9-1.79-2.81-3.64-5.72-5.55-2.92-1.9-7.29-3.75-13.12-5.55-5.83-1.79-13.68-3.03-23.55-3.7h-2.02v104.64h65.95v18.17h-105.99V18.84c0-1.79-.62-3.81-1.85-6.06-1.23-2.24-2.75-4.26-4.54-6.06-1.8-2.24-3.93-4.48-6.39-6.73h118.77Z"/>
      <path class="cls-19" d="M1839.39,0v233.85h62.58v18.51h-102.62V18.84c0-1.79-.62-3.81-1.85-6.06-1.23-2.24-2.75-4.26-4.54-6.06-1.8-2.24-3.93-4.48-6.39-6.73h52.83Z"/>
    </g>
  </g>
  <g id="Calque_3" data-name="Calque 3">
    <g>
      <path class="cls-15" d="M43.42,315.42c0-1.31-.46-2.79-1.36-4.43-.9-1.64-2.16-3.12-3.34-4.43-1.33-1.48-2.89-3.29-4.7-4.94h87.34c0,10.61-.01,15.92-.02,26.53,0-.63-.41-1.69-1.23-3.18-.82-1.49-2.72-3.01-5.69-4.57-2.97-1.56-7.38-2.91-13.23-4.06-5.86-1.15-13.9-1.71-24.12-1.64-5.34.13-8.02.2-13.36.33,1.65.8,3.26,1.67,4.7,2.64,1.14.77,2.19,1.8,3.09,3.01.9,1.2,1.36,2.45,1.36,3.75,0,14.07-.01,28.14-.02,42.21,11.21-.36,22.42-.72,33.63-1.08,0,10.59-.01,15.89-.02,26.48,0,.29,0,.43,0,.72,0-.29,0-.43,0-.72,0-.63-.33-1.58-.99-2.82-.66-1.24-2.06-2.5-4.2-3.77-2.14-1.27-5.36-2.45-9.64-3.56-4.29-1.11-10.06-1.77-17.31-1.97-.59.02-.89.03-1.48.06,0,23.86-.02,47.71-.03,71.57-9.8.74-19.6,1.49-29.4,2.25,0-46.13,0-92.26.01-138.39Z"/>
      <path class="cls-6" d="M198.8,301.63c9.56,0,16.95,2.77,22.13,8.25,5.19,5.48,7.77,13.08,7.76,22.84-.01,6.67-.02,10-.03,16.67,0,4.21-.55,8.43-1.63,12.66-1.08,4.24-2.69,8.12-4.84,11.65-2.15,3.54-4.79,6.53-7.93,8.99-3.14,2.46-6.68,4-10.64,4.61,3.13,2.01,5.64,4.06,7.53,6.18,1.89,2.11,3.47,4.07,4.57,5.81,1.16,1.86,2.05,3.76,2.71,5.54,5.15,11.91,10.32,23.81,15.52,35.69-10.47.64-20.94,1.3-31.4,1.98-5.04-11.44-10.05-22.9-15.04-34.37-.49-1.5-1.32-3.08-2.47-4.7-1.15-1.63-2.47-3.18-3.95-4.65-1.48-1.47-3.05-2.78-4.69-3.94-1.64-1.16-3.3-1.94-4.94-2.33-.02,17.34-.04,34.69-.06,52.03-9.81.66-19.61,1.32-29.42,2.01.04-43.93.08-87.86.13-131.78,0-1.25-.45-2.66-1.36-4.21-.9-1.56-2.16-2.97-3.34-4.22-1.33-1.41-2.88-3.13-4.7-4.7h66.07ZM162.42,314.4c1.65.77,3.26,1.6,4.7,2.52,1.14.73,2.18,1.72,3.09,2.87.9,1.15,1.36,2.34,1.36,3.57-.02,18.19-.04,36.38-.06,54.57,7.22-.26,10.83-.39,18.05-.64,1.32-.05,2.56-.66,3.71-1.85,1.15-1.18,2.19-2.59,3.1-4.22.91-1.63,1.61-3.33,2.11-5.09.5-1.76.75-3.25.75-4.47.02-12.86.03-25.72.05-38.58,0-2.59-.94-4.71-2.84-6.37-1.89-1.66-4.16-2.49-6.8-2.48-10.89.06-16.33.1-27.22.16Z"/>
      <path class="cls-17" d="M244.35,439.88c9.12-42.86,18.35-85.71,27.67-128.53-.49-1.18-1.23-2.32-2.22-3.42-.99-1.1-1.89-2.33-2.72-3.21-.97-1.03-2.31-2.06-3.46-3.1h50.97c9.55,44.24,19.19,88.46,28.93,132.65-10.59.55-15.88.84-26.47,1.41-2.13-9.31-4.26-18.61-6.38-27.92-.33-.86-1.03-1.77-2.1-2.74-1.07-.97-2.8-1.92-5.19-2.83-2.39-.92-5.52-1.74-9.39-2.45-3.87-.72-8.78-1.18-14.71-1.37-2.84,13.31-5.66,26.62-8.48,39.93-10.58.62-15.88.93-26.46,1.58ZM306.77,385.07c-4.18-19.93-8.35-39.86-12.51-59.79-4.26,20.22-8.5,40.44-12.73,60.67,10.09-.36,15.14-.54,25.23-.88Z"/>
      <path class="cls-5" d="M343.53,313.43c0-1.14-.45-2.43-1.35-3.86-.9-1.43-2.08-2.71-3.33-3.86-1.32-1.22-2.88-2.65-4.69-4.09,33.57,0,67.14,0,100.71,0-.02,9.3-.03,13.95-.05,23.24-.66-2.49-2.43-4.48-5.31-5.99-2.88-1.51-6.18-2.67-9.89-3.49-3.71-.82-7.38-1.36-11.01-1.62-3.63-.26-6.6-.46-8.91-.59-2.47.01-3.71.02-6.19.03.82.28,2.23.97,4.2,2.09,1.98,1.11,3.37,2.44,4.2,3.97-.08,37.37-.16,74.75-.24,112.12-9.81.46-19.63.94-29.44,1.43.08-39.84.16-79.68.25-119.51-9.65.04-19.3.09-28.95.13Z"/>
      <path class="cls-4" d="M512.3,301.63c9.56,0,16.95,2.46,22.13,7.34,5.19,4.88,7.77,11.65,7.75,20.34-.01,5.94-.02,8.91-.03,14.84,0,3.75-.55,7.5-1.63,11.26-1.08,3.76-2.7,7.2-4.85,10.32-2.15,3.12-4.8,5.76-7.94,7.9-3.14,2.15-6.69,3.47-10.65,3.97,3.13,1.82,5.64,3.67,7.54,5.58,1.89,1.9,3.47,3.65,4.57,5.23,1.16,1.66,2.05,3.37,2.71,4.96,5.16,10.69,10.33,21.37,15.53,32.04-10.48.36-20.96.74-31.43,1.14-5.02-10.23-10.03-20.46-15.03-30.69-.49-1.34-1.32-2.74-2.47-4.2-1.15-1.46-2.47-2.85-3.95-4.16-1.48-1.31-3.05-2.5-4.69-3.54-1.65-1.04-3.3-1.75-4.94-2.12-.03,15.31-.07,30.61-.1,45.92-9.82.39-19.63.8-29.45,1.22.08-38.6.17-77.2.25-115.8,0-1.1-.45-2.34-1.35-3.71s-2.15-2.6-3.33-3.71c-1.32-1.23-2.88-2.75-4.69-4.13h66.07ZM475.91,312.89c1.65.68,3.25,1.41,4.7,2.23,1.14.65,2.18,1.52,3.09,2.54.9,1.01,1.36,2.07,1.35,3.16-.03,16.05-.07,32.11-.1,48.16,7.23-.16,10.84-.23,18.06-.38,1.32-.03,2.56-.56,3.72-1.6,1.15-1.04,2.19-2.27,3.1-3.71.91-1.43,1.61-2.93,2.11-4.49.5-1.56.75-2.88.75-3.96.02-11.4.05-22.8.07-34.19,0-2.29-.94-4.18-2.83-5.65-1.89-1.48-4.16-2.21-6.8-2.2-10.89.04-16.33.06-27.22.1Z"/>
      <path class="cls-12" d="M561.52,312.8c0-1.06-.45-2.26-1.35-3.59-.9-1.33-2.14-2.51-3.33-3.59-1.31-1.19-2.88-2.66-4.69-4h38.85c-.08,40.78-.16,81.56-.24,122.34-9.82.31-19.64.62-29.46.96.08-37.37.15-74.75.23-112.12Z"/>
      <path class="cls-20" d="M610.73,328.81c.02-8.54,2.63-15.21,7.83-20.01,5.2-4.79,12.59-7.18,22.16-7.18h26.72c9.73,0,17.15,2.36,22.26,7.07,5.1,4.7,7.65,11.24,7.64,19.62-.02,10.29-.02,15.43-.04,25.72-5.61-2.27-11.09-4.25-16.45-5.95-5.36-1.7-9.69-3.05-12.99-4.06.02-9.65.02-14.47.04-24.12,0-2.2-.9-4.02-2.71-5.44-1.81-1.42-4.12-2.13-6.92-2.13-10.89.02-16.33.04-27.22.06,1.81.65,3.4,1.44,4.7,2.14,1.24.67,2.43,1.46,3.34,2.44.9.97,1.36,1.99,1.36,3.03-.05,28.24-.1,56.47-.15,84.71.16,1.95,1.15,3.59,2.96,4.92,1.81,1.32,3.96,1.96,6.43,1.9,3.37-.08,5.05-.12,8.42-.2,2.8-.07,5.11-.83,6.94-2.3,1.82-1.47,2.73-3.24,2.73-5.31l.06-33.45c3.3,1.12,6.47,2.24,9.52,3.36,3.05,1.12,5.65,2.18,7.79,3.18,4.78,2.39,7.91,4.82,9.39,7.31,1.48,2.49,2.38,4.38,2.71,5.66,0,1.86,0,2.78,0,4.64-.01,7.99-2.58,14.48-7.71,19.5-5.13,5.02-12.56,7.65-22.29,7.89-10.7.26-16.04.4-26.74.69-9.57.26-16.95-2.01-22.14-6.85-5.19-4.84-7.78-11.34-7.76-19.49.04-22.46.08-44.91.13-67.37Z"/>
      <path class="cls-3" d="M718.15,312.42c0-1.03-.45-2.18-1.36-3.47-.9-1.28-2.14-2.43-3.34-3.47-1.31-1.14-2.88-2.57-4.7-3.86h38.85c-.05,39.5-.1,79-.15,118.5-9.82.17-19.64.36-29.46.56.05-36.09.1-72.18.16-108.27Z"/>
      <path class="cls-8" d="M768.38,309.08c0-1.02-.45-2.01-1.36-2.96-.91-.96-2.09-1.73-3.34-2.39-1.3-.69-2.89-1.46-4.7-2.1h66.07c9.56,0,16.95,2.31,22.14,6.92,5.19,4.61,7.79,11.02,7.78,19.22-.01,21.59-.03,43.19-.04,64.78,0,7.83-2.61,14.16-7.81,19.01-5.2,4.85-12.6,7.32-22.17,7.43-18.9.22-37.8.48-56.7.78.04-36.9.09-73.79.13-110.69ZM788.42,312.11c1.81.64,3.4,1.41,4.7,2.09,1.25.66,2.43,1.43,3.34,2.38.9.95,1.36,1.94,1.36,2.95-.03,29.78-.06,59.55-.09,89.33,7.23-.09,10.84-.13,18.07-.21,2.64-.03,4.87-.75,6.69-2.16,1.82-1.41,2.73-3.13,2.73-5.16.02-27.28.05-54.57.07-81.85,0-2.15-.91-3.92-2.72-5.31-1.81-1.39-4.04-2.09-6.68-2.08-10.99.01-16.48.02-27.47.03Z"/>
      <path class="cls-14" d="M875.77,312.22c0-1.01-.46-2.15-1.36-3.4-.9-1.26-2.14-2.38-3.34-3.4-1.31-1.12-2.89-2.52-4.7-3.78h87.35c0,8.45,0,12.68,0,21.13,0-.5-.41-1.35-1.24-2.55-.82-1.19-2.72-2.42-5.69-3.68-2.97-1.26-7.38-2.36-13.24-3.3-5.86-.94-13.9-1.41-24.13-1.41-5.35.08-8.02.12-13.36.19,1.65.63,3.25,1.31,4.7,2.08,1.14.6,2.19,1.42,3.09,2.36.9.94,1.36,1.92,1.36,2.93,0,10.96,0,21.91-.01,32.87,11.22-.02,22.44-.03,33.66-.04,0,8.38,0,12.57,0,20.95,0-.5-.33-1.26-.99-2.26-.66-1-2.07-2.04-4.21-3.11-2.14-1.07-5.37-2.1-9.65-3.1-4.29-1-10.07-1.68-17.33-2.04-.59,0-.89,0-1.48,0,0,15.17-.01,30.35-.02,45.52,16.18-.06,32.35-.1,48.53-.11,0,4.08,0,6.11,0,10.19-26,.02-52,.12-78,.29.02-35.44.04-70.87.06-106.31Z"/>
      <path class="cls-21" d="M1037.85,327.73c0-8.2,2.59-14.59,7.78-19.19,5.19-4.6,12.57-6.91,22.14-6.91h26.72c9.73,0,17.16,2.31,22.28,6.95,5.11,4.64,7.68,11.09,7.69,19.35,0,8.39.01,12.58.02,20.97-4.95-2.7-10.2-5.04-15.72-7.03-5.53-1.99-10.11-3.49-13.74-4.52,0-7.14,0-10.72-.02-17.86,0-2.15-.91-3.93-2.73-5.32-1.81-1.39-4.13-2.09-6.93-2.1-10.89-.01-16.33-.02-27.22-.02,1.81.63,3.4,1.4,4.7,2.09,1.25.66,2.44,1.42,3.34,2.37.91.95,1.36,1.93,1.36,2.94,0,9.86.01,14.78.02,24.64,2.8,1.15,5.99,2.4,9.41,3.83,2.95,1.23,6.48,2.71,10.52,4.32,4.04,1.6,8.46,3.43,13.25,5.48,1.15.39,2.31.9,3.47,1.54,3.96,1.8,7.88,4.11,11.76,6.93,3.88,2.82,6.4,6.08,7.56,9.78.16.26.29,1.18.37,2.77.08,1.59.17,3.37.25,5.34.09,1.97.17,3.94.25,5.91.09,1.97.13,3.53.13,4.67,0-.61,0-.91,0-1.52,0,1.22,0,1.83,0,3.05,0-.61,0-.91,0-1.52-.32,7.5-3.04,13.47-8.15,17.91-5.11,4.44-12.37,6.6-21.78,6.49-10.7-.12-16.05-.18-26.74-.28-9.58-.09-16.96-2.55-22.17-7.38-5.2-4.83-7.81-11.15-7.81-18.97,0-9.68,0-14.53-.01-24.21,2.64.77,6.52,2.01,11.64,3.74,5.12,1.73,11.14,4,18.08,6.82,0,9.1,0,13.65.02,22.74.16,1.9,1.16,3.52,2.97,4.86,1.82,1.34,3.96,2.03,6.44,2.05,3.37.03,5.05.05,8.42.08,2.81.03,5.11-.64,6.93-2.02,1.81-1.37,2.72-3.07,2.72-5.1,0-8.51-.01-12.77-.02-21.28-.17-1.52-.64-3.2-1.49-4.76-.75-1.38-2.07-2.93-3.72-4.58-1.65-1.65-4.05-3.25-7.18-4.79-1.82-1.02-5.16-2.47-10.03-4.32-4.87-1.86-9.95-3.74-15.23-5.66-5.94-2.16-12.46-4.52-19.56-7.07,0-8.47,0-12.71-.01-21.18Z"/>
      <path class="cls-13" d="M1137.19,419.61c9.15-36.51,18.26-73.02,27.34-109.55-.5-1.02-1.24-2.01-2.23-2.97-.99-.96-1.9-2.03-2.73-2.78-.99-.9-2.31-1.79-3.47-2.68h50.97c9.84,39.96,19.64,79.93,29.39,119.91-10.6-.25-15.89-.37-26.49-.6-2.59-10.09-3.89-15.14-6.48-25.21-.33-.78-1.04-1.63-2.11-2.54-1.07-.92-2.81-1.85-5.2-2.78-2.39-.93-5.53-1.81-9.41-2.64-3.88-.82-8.79-1.47-14.73-1.93-2.79,11.4-5.58,22.79-8.37,34.19-10.6-.19-15.9-.27-26.49-.43ZM1199.52,375.44c-4.23-17.68-8.46-35.36-12.7-53.04-4.18,17.58-8.36,35.16-12.55,52.73,10.1.12,15.15.18,25.25.3Z"/>
      <path class="cls-11" d="M1254.61,312.53c0-1.04-.46-2.21-1.37-3.51-.91-1.3-2.15-2.46-3.35-3.51-1.32-1.16-2.89-2.59-4.71-3.89h35.63c13.34,28.3,26.59,56.64,39.75,85.03-1.6-8.18-2.4-12.27-4-20.43-.04-21.53-.08-43.06-.12-64.6h27.71c.08,40.99.16,81.97.25,122.96-10.49-.34-15.74-.51-26.24-.83-13.24-28.81-26.58-57.58-40.01-86.3,1.7,8.08,2.55,12.12,4.24,20.22.04,21.68.08,43.37.12,65.05-11.09-.31-16.64-.45-27.73-.73-.06-36.48-.12-72.97-.19-109.45Z"/>
      <path class="cls-22" d="M1364.01,329.23c-.02-8.67,2.57-15.42,7.75-20.29,5.18-4.87,12.56-7.32,22.13-7.32h26.72c9.73,0,17.16,2.48,22.29,7.48,5.12,5,7.7,11.97,7.71,20.87.01,6.16.02,9.24.03,15.4-4.96-2.95-10.2-5.51-15.73-7.68-5.53-2.18-10.12-3.82-13.74-4.94-.01-4.8-.02-7.2-.03-12,0-2.3-.92-4.21-2.73-5.71-1.82-1.5-4.13-2.25-6.93-2.26-10.89-.04-16.33-.06-27.22-.09,1.82.68,3.4,1.5,4.71,2.23,1.24.7,2.44,1.52,3.35,2.53.91,1.01,1.37,2.06,1.37,3.13.06,29.12.12,58.24.18,87.36.17,2.02,1.16,3.77,2.98,5.24,1.82,1.47,3.96,2.26,6.44,2.34,3.86.13,5.79.2,9.65.34,2.8.1,5.11-.56,6.93-1.99,1.81-1.43,2.71-3.23,2.71-5.4-.02-9.91-.04-19.81-.06-29.72,0-.41-.25-.99-.75-1.75-.5-.76-1.36-1.59-2.6-2.5-1.24-.91-2.98-1.86-5.2-2.86-2.23-.99-5.08-1.86-8.54-2.61-.01-5.26-.02-7.9-.03-13.16,15.1.25,30.19.51,45.28.78.03,14.51.06,29.03.09,43.54.02,8.49-2.53,15.25-7.63,20.24-5.1,4.99-12.52,7.27-22.26,6.89-10.69-.42-16.04-.62-26.73-1.02-9.57-.35-16.96-3.17-22.17-8.42-5.21-5.25-7.82-11.99-7.84-20.26-.05-22.8-.09-45.61-.14-68.41Z"/>
      <path class="cls-1" d="M1471.37,313.21c0-1.1-.46-2.35-1.37-3.73-.91-1.38-2.16-2.61-3.35-3.73-1.32-1.23-2.89-2.75-4.71-4.13h38.85c.08,39.22.17,78.44.25,117.65,15.34.65,30.68,1.33,46.02,2.02,0,4.68.01,7.01.02,11.69-25.15-1.25-50.31-2.43-75.46-3.54-.08-38.75-.16-77.49-.25-116.24Z"/>
      <path class="cls-18" d="M1564.39,433.87c9.15-40.89,18.23-81.8,27.22-122.72-.5-1.15-1.24-2.28-2.23-3.36-.99-1.08-1.9-2.28-2.73-3.14-.98-1.01-2.32-2.02-3.47-3.02h50.97c9.92,45.9,19.73,91.83,29.42,137.78-10.58-.64-15.88-.95-26.46-1.56-2.15-9.65-4.32-19.3-6.48-28.95-.33-.89-1.03-1.88-2.11-2.95-1.07-1.07-2.81-2.17-5.2-3.3-2.39-1.12-5.53-2.2-9.41-3.23-3.88-1.03-8.78-1.88-14.72-2.54-2.77,12.8-5.55,25.59-8.34,38.38-10.59-.57-15.88-.85-26.47-1.39ZM1626.63,385.68c-4.22-20.16-8.47-40.32-12.73-60.47-4.15,19.87-8.32,39.74-12.5,59.6,10.09.34,15.14.52,25.23.87Z"/>
      <path class="cls-2" d="M1681.68,314.21c0-1.2-.46-2.55-1.37-4.05-.91-1.5-2.16-2.85-3.35-4.05-1.33-1.35-2.89-2.99-4.71-4.49h35.63c13.43,33.12,26.66,66.31,39.7,99.59-1.59-9.62-2.39-14.41-3.98-23.99-.03-25.2-.06-50.39-.09-75.59h27.71c.05,48.25.09,96.5.14,144.74-10.48-.73-15.72-1.08-26.2-1.79-13.12-33.88-26.43-67.67-39.94-101.4,1.7,9.39,2.54,14.09,4.24,23.52.04,25.18.07,50.37.1,75.55-11.08-.71-16.61-1.06-27.69-1.74-.07-42.1-.13-84.2-.2-126.3Z"/>
      <path class="cls-10" d="M1790.54,314.63c0-1.26-.46-2.68-1.36-4.26-.91-1.57-2.1-3-3.34-4.26-1.32-1.34-2.89-2.91-4.71-4.48,33.57,0,67.14,0,100.71,0,0,11.09,0,16.63,0,27.71-.66-2.98-2.44-5.39-5.32-7.23-2.88-1.84-6.18-3.27-9.9-4.28-3.71-1.01-7.39-1.69-11.01-2.04-3.63-.35-6.6-.61-8.91-.79-2.47-.02-3.71-.02-6.19-.04.82.33,2.23,1.15,4.21,2.46,1.98,1.31,3.38,2.87,4.21,4.66.01,43.31.03,86.62.04,129.94-9.8-.75-19.6-1.48-29.41-2.19-.03-45-.05-90-.08-134.99-9.65-.06-19.3-.12-28.95-.19Z"/>
    </g>
    <g>
      <path class="cls-9" d="M39.42,315.42c0-.35-.11-1.13-.86-2.49-.71-1.28-1.77-2.53-2.81-3.69l-.58-.65c-1.14-1.28-2.43-2.72-3.84-4l-7.64-6.96h101.68l-.02,30.53h-8c0,.24.03.38.04.39,0-.02-.12-.46-.77-1.64-.11-.2-.82-1.27-4.04-2.96-2.61-1.37-6.69-2.61-12.15-3.68-5.28-1.04-12.58-1.57-21.7-1.57-.54,0-1.08,0-1.62,0l-2.06.05c1.21,1.78,1.83,3.69,1.83,5.68v38.08c9.82-.32,19.65-.63,29.49-.94l4.13-.13-.02,31.33h-8v-.51c-.05-.15-.18-.51-.52-1.16-.05-.09-.52-.9-2.7-2.19-1.24-.73-3.74-1.87-8.61-3.13-3.46-.9-8.09-1.49-13.79-1.75l-.03,71.24-3.7.28c-9.8.74-19.6,1.49-29.39,2.25l-4.31.34v-142.72Z"/>
      <path class="cls-9" d="M138.13,314.76c0-.24-.08-.93-.82-2.2-.7-1.2-1.75-2.38-2.79-3.48l-.58-.62c-1.14-1.21-2.43-2.59-3.83-3.81l-8.09-7.02h76.78c10.65,0,19.07,3.2,25.04,9.5,5.89,6.22,8.87,14.83,8.85,25.59l-.03,16.67c0,4.52-.6,9.11-1.75,13.64-1.17,4.6-2.95,8.89-5.3,12.74-2.39,3.93-5.37,7.31-8.88,10.06-1.46,1.14-3,2.12-4.61,2.92.73.68,1.4,1.36,2.02,2.05,2.25,2.52,3.84,4.54,4.97,6.36,1.2,1.92,2.22,3.99,3.04,6.17,5.11,11.84,10.32,23.81,15.48,35.58l2.3,5.25-5.72.35c-10.46.64-20.93,1.3-31.39,1.98l-2.79.18-1.13-2.56c-5-11.34-10.06-22.91-15.04-34.38l-.07-.17-.06-.18c-.37-1.12-1.02-2.35-1.93-3.64-1.01-1.43-2.19-2.81-3.5-4.11-.9-.89-1.85-1.73-2.83-2.5l-.06,49.17-3.73.25c-9.8.66-19.6,1.32-29.4,2.01l-4.28.3.13-136.08ZM174.06,318.33c1,1.58,1.5,3.27,1.5,5.04l-.06,50.42c4.75-.17,8.21-.29,13.91-.49.34-.01.8-.45.99-.64.91-.93,1.74-2.07,2.47-3.37.75-1.35,1.34-2.77,1.75-4.23.49-1.75.6-2.81.6-3.39l.05-38.58c0-1.43-.45-2.46-1.48-3.36-1.15-1.01-2.45-1.48-4.09-1.48v-4l-.05,4-15.59.09Z"/>
      <path class="cls-9" d="M240.44,439.05c9-42.27,18.2-85.04,27.37-127.15-.27-.43-.6-.87-.99-1.3-.5-.56-.99-1.15-1.45-1.72-.44-.54-.85-1.04-1.19-1.41-.49-.52-1.18-1.11-1.91-1.73-.45-.38-.89-.76-1.32-1.14l-7.73-6.97h64.61l.68,3.16c9.53,44.16,19.27,88.78,28.93,132.64l1.02,4.61-4.71.25c-10.58.55-15.88.84-26.46,1.41l-3.36.18-.75-3.28c-2.1-9.17-4.19-18.33-6.28-27.5-.11-.18-.39-.55-.98-1.08-.39-.36-1.43-1.1-3.94-2.06-2.15-.83-5.07-1.58-8.69-2.25-2.93-.54-6.54-.93-10.78-1.16-2.6,12.21-5.19,24.41-7.77,36.62l-.63,2.99-3.05.18c-10.58.62-15.87.93-26.45,1.58l-5.25.32,1.1-5.14ZM294.25,344.79c-2.59,12.33-5.17,24.65-7.75,36.98,5.55-.2,9.77-.34,15.38-.54-2.55-12.15-5.09-24.3-7.63-36.45Z"/>
      <path class="cls-9" d="M368.47,317.32l-28.95.13v-4.03c0-.06-.01-.58-.72-1.71-.61-.97-1.49-1.97-2.67-3.06-1.42-1.31-2.83-2.59-4.47-3.89l-8.98-7.13h116.18l-.06,27.25-7.87,1.01c-.13-.5-.53-2.02-3.29-3.46-2.56-1.34-5.55-2.39-8.9-3.12-3.5-.77-7.01-1.29-10.44-1.54-.96-.07-1.89-.14-2.77-.2l.37.69-.25,116.94-3.8.18c-9.81.46-19.62.94-29.43,1.43l-4.21.21.25-119.7Z"/>
      <path class="cls-9" d="M451.62,313.16s-.01-.46-.69-1.5c-.66-1.01-1.7-2.03-2.72-2.98l-.56-.53c-1.14-1.07-2.42-2.28-3.82-3.34l-9.43-7.18h77.92c10.56,0,18.93,2.83,24.87,8.42,6,5.65,9.03,13.47,9.01,23.27l-.03,14.84c0,4.1-.61,8.25-1.79,12.35-1.2,4.16-3.01,8.02-5.4,11.49-2.42,3.51-5.44,6.52-8.97,8.93-1.22.84-2.5,1.57-3.84,2.19.46.41.89.82,1.3,1.23,2.27,2.28,3.86,4.11,5.01,5.76,1.22,1.74,2.25,3.63,3.08,5.61,5.14,10.65,10.3,21.29,15.47,31.93l2.69,5.53-6.15.21c-10.47.36-20.95.74-31.42,1.14l-2.6.1-1.15-2.33c-5.02-10.23-10.03-20.46-15.03-30.7l-.09-.18-.07-.19c-.34-.94-.97-1.98-1.85-3.1-1-1.26-2.16-2.49-3.47-3.65-.95-.85-1.96-1.64-3-2.36l-.09,43.48-3.83.15c-9.81.39-19.63.8-29.44,1.22l-4.18.18.26-119.99ZM487.99,316.84c.84,1.53,1.05,2.94,1.05,3.98l-.09,44.07c4.79-.1,8.25-.17,13.97-.29.14,0,.5-.01,1.13-.58.88-.79,1.69-1.76,2.39-2.87.72-1.14,1.29-2.34,1.68-3.57.46-1.45.56-2.29.56-2.75l.07-34.2c0-1.05-.37-1.77-1.3-2.49-1.17-.91-2.57-1.36-4.29-1.36v-4l-.03,4-15.14.05Z"/>
      <path class="cls-9" d="M557.52,312.79s-.04-.42-.66-1.33c-.66-.97-1.69-1.95-2.71-2.87l-.55-.5c-1.14-1.04-2.44-2.21-3.84-3.25l-9.79-7.22h55.02l-.25,130.22-3.87.12c-9.82.31-19.63.62-29.44.96l-4.14.14.24-116.27Z"/>
      <path class="cls-9" d="M639.05,426.54c-9.89,0-17.77-2.67-23.42-7.95-6.01-5.61-9.05-13.15-9.03-22.42l.13-67.37c.02-9.67,3.09-17.39,9.12-22.94,5.93-5.46,14.3-8.23,24.87-8.23h26.72c10.72,0,19.12,2.73,24.97,8.13,5.94,5.48,8.94,13.07,8.93,22.56l-.05,31.64-5.49-2.22c-5.5-2.22-10.94-4.19-16.16-5.84-5.35-1.69-9.66-3.04-12.95-4.05l-2.83-.87.05-27.08c0-.96-.34-1.62-1.18-2.28-1.09-.86-2.54-1.27-4.42-1.27l-14.78.04c.73,1.4.92,2.68.92,3.64l-.15,84.51c.07.52.31,1.14,1.32,1.88,1.04.76,2.27,1.13,3.76,1.13l8.64-.2c1.92-.04,3.39-.51,4.52-1.41,1.09-.88,1.24-1.61,1.24-2.21l.07-39.02,5.28,1.79c3.32,1.13,6.55,2.27,9.62,3.39,3.12,1.15,5.85,2.26,8.1,3.31l.1.05c5.54,2.76,9.15,5.66,11.05,8.85,1.71,2.87,2.71,5,3.15,6.7l.13.5v5.15c-.02,9.06-3.02,16.58-8.92,22.35-5.85,5.73-14.26,8.76-24.99,9.03-10.69.26-16.04.4-26.73.69-.52.01-1.04.02-1.55.02Z"/>
      <path class="cls-9" d="M714.15,312.41s-.08-.38-.63-1.16c-.65-.93-1.68-1.87-2.7-2.76l-.54-.47c-1.14-1-2.44-2.14-3.85-3.14l-10.21-7.26h55.38l-.16,126.43-3.92.07c-9.82.17-19.64.36-29.45.56l-4.09.08.16-112.36Z"/>
      <path class="cls-9" d="M764.38,309.2c-.04-.06-.11-.17-.26-.33-.49-.51-1.24-1.04-2.31-1.61-1.52-.81-2.84-1.4-4.15-1.87l1.33-7.77h66.07c10.53,0,18.87,2.67,24.8,7.93,6.06,5.38,9.13,12.86,9.13,22.22l-.04,64.78c0,8.94-3.06,16.32-9.08,21.93-5.93,5.52-14.29,8.39-24.85,8.51-18.55.22-37.62.48-56.69.78l-4.07.06.14-114.63ZM800.98,316.1c.66,1.31.83,2.52.83,3.44l-.09,85.27c4.81-.06,8.28-.1,14.03-.16,1.76-.02,3.16-.45,4.28-1.32,1.04-.81,1.18-1.44,1.18-2l.07-81.85c0-.75-.19-1.4-1.15-2.14-1.1-.84-2.49-1.26-4.23-1.26v-4,4s-14.92.02-14.92.02Z"/>
      <path class="cls-9" d="M871.77,312.22s0,0,0,0c0,0-.09-.36-.61-1.07-.65-.91-1.68-1.83-2.69-2.7l-.51-.44c-1.15-.99-2.45-2.11-3.87-3.1l-10.46-7.28h104.09v25.13h-8c0,.49.12.79.12.79,0-.01-.13-.32-.65-1.07-.02-.03-.69-.88-3.96-2.27-2.66-1.13-6.8-2.15-12.32-3.04-5.6-.9-13.47-1.36-23.4-1.36l-1.2.02c.71,1.35.9,2.6.9,3.54v28.86c9.88-.02,19.76-.03,29.65-.04h4s0,24.95,0,24.95h-8c0,.42.1.68.1.68,0,0-.09-.23-.43-.75-.01-.02-.49-.65-2.65-1.72-1.86-.92-4.81-1.86-8.78-2.79-3.5-.82-8.17-1.42-13.9-1.79v37.36c15.87-.06,30.48-.09,44.52-.09h4s0,18.19,0,18.19h-4c-25.82.03-52.05.12-77.98.29l-4.03.03.06-110.33Z"/>
      <path class="cls-9" d="M1094.56,423.04c-10.69-.12-16.04-.18-26.73-.28-10.56-.1-18.92-2.94-24.85-8.44-6.03-5.6-9.08-12.96-9.09-21.9l-.02-29.54,5.12,1.49c2.74.8,6.71,2.07,11.8,3.79,5.18,1.75,11.34,4.07,18.3,6.91l2.49,1.01.02,25.23c.05.36.24,1.02,1.35,1.84,1.13.84,2.47,1.25,4.1,1.27l8.55.08c1.85,0,3.27-.4,4.35-1.21,1-.75,1.13-1.36,1.13-1.91l-.02-21.04c-.14-1.07-.5-2.16-1-3.09-.34-.63-1.15-1.78-3.04-3.67-1.33-1.34-3.39-2.69-6.11-4.02l-.2-.1c-1.14-.64-3.71-1.87-9.49-4.07-4.56-1.74-9.52-3.58-15.17-5.64-5.93-2.16-12.45-4.52-19.54-7.06l-2.65-.95v-24c-.02-9.35,3.06-16.82,9.12-22.19,5.92-5.25,14.27-7.91,24.79-7.91h26.72c10.72,0,19.12,2.69,24.96,7.99,5.96,5.41,8.99,12.91,9,22.31l.03,27.7-5.92-3.22c-4.75-2.59-9.86-4.87-15.17-6.78-5.37-1.93-9.9-3.42-13.48-4.44l-2.91-.82-.02-20.88c0-.66-.14-1.37-1.16-2.16-1.11-.85-2.58-1.27-4.5-1.27h-14.63c.65,1.28.82,2.47.82,3.37l.02,21.95c.25.1.5.2.75.3,1.95.79,4.03,1.62,6.2,2.53l.89.37c2.79,1.17,5.96,2.49,9.57,3.92,3.97,1.57,8.41,3.41,13.21,5.46,1.28.44,2.56,1.01,3.83,1.7,4.15,1.9,8.29,4.34,12.32,7.27,4.48,3.25,7.48,7.13,8.94,11.54.36.86.53,2,.64,4.03.09,1.6.17,3.4.25,5.38l.25,5.91c.05,1.26.09,2.37.11,3.32h.02s0,3.05,0,3.05c0,.46-.08.89-.22,1.3-.86,7.4-3.99,13.48-9.31,18.1-5.71,4.96-13.69,7.47-23.73,7.47h-.73Z"/>
      <path class="cls-9" d="M1236.38,425.54c-10.59-.25-15.89-.37-26.48-.6l-3.03-.06s-4.6-17.92-7.11-27.68c-.12-.16-.39-.49-.95-.96-.41-.35-1.49-1.09-4.06-2.1-2.18-.85-5.14-1.68-8.79-2.45-2.94-.63-6.58-1.15-10.83-1.56-2.52,10.29-8.32,33.96-8.32,33.96l-3.19-.06c-10.59-.19-15.89-.27-26.48-.43l-5.05-.08,1.23-4.89c9.48-37.85,18.3-73.16,26.93-107.89-.21-.26-.45-.52-.72-.78-.51-.49-.99-1-1.46-1.5-.44-.46-.86-.9-1.19-1.21-.49-.45-1.18-.96-1.92-1.5-.44-.32-.88-.64-1.29-.97l-9.24-7.16h65.8l.75,3.04c9.91,40.25,19.8,80.6,29.4,119.92l1.24,5.07-5.22-.12ZM1194.43,371.37c-2.53-10.58-5.06-21.16-7.6-31.74-2.5,10.52-5.01,21.04-7.51,31.56,5.48.06,9.65.11,15.11.18Z"/>
      <path class="cls-9" d="M1344.28,428.58c-10.49-.34-15.74-.51-26.23-.83l-2.48-.08-1.04-2.25c-9.17-19.96-18.59-40.32-28.12-60.8l.11,62.21-4.12-.11c-11.09-.3-16.63-.45-27.72-.73l-3.89-.1-.19-113.34s-.07-.4-.65-1.22c-.66-.94-1.69-1.9-2.71-2.8l-.51-.45c-1.15-1.02-2.46-2.17-3.88-3.19l-10.16-7.25h50.65l1.08,2.29c9.47,20.1,18.89,40.19,28.12,60.01l-.12-62.3h35.71l.26,131.09-4.14-.14Z"/>
      <path class="cls-9" d="M1422.95,431.39c-.73,0-1.47-.01-2.22-.04-10.69-.42-16.03-.62-26.72-1.02-10.57-.39-18.93-3.62-24.86-9.6-5.95-6-8.98-13.76-9-23.07l-.14-68.41c-.02-9.77,3.01-17.58,9.02-23.21,5.94-5.58,14.31-8.4,24.87-8.4h26.72c10.78,0,19.22,2.9,25.08,8.62,5.9,5.75,8.9,13.74,8.92,23.72l.05,22.46-6.06-3.61c-4.74-2.82-9.84-5.31-15.15-7.4-5.33-2.1-9.86-3.73-13.46-4.84l-2.81-.87-.03-14.95c0-1.11-.38-1.89-1.28-2.63-1.09-.9-2.53-1.34-4.4-1.35l-14.79-.05c.8,1.48,1.01,2.85,1.01,3.85l.18,87.18c.07.6.34,1.39,1.5,2.33,1.14.92,2.46,1.4,4.06,1.45l9.66.34c.14,0,.27,0,.4,0,1.65,0,2.93-.37,3.91-1.14,1.04-.82,1.19-1.57,1.19-2.25l-.06-29.13s-.06-.09-.09-.15c-.06-.08-.41-.58-1.62-1.47-1.01-.74-2.51-1.56-4.47-2.43-1.96-.88-4.57-1.67-7.76-2.36l-3.15-.68-.04-20.46,4.07.07c15.1.25,30.19.51,45.29.79l3.92.07.1,47.46c.02,9.58-2.95,17.36-8.83,23.11-5.47,5.35-13.21,8.07-22.99,8.07Z"/>
      <path class="cls-9" d="M1546.88,436.99c-24.97-1.24-50.35-2.43-75.44-3.54l-3.82-.17-.26-120.06s0-.47-.71-1.54c-.68-1.03-1.71-2.05-2.74-3l-.51-.48c-1.16-1.08-2.46-2.31-3.89-3.39l-9.49-7.19h54.74l.25,117.82c14.07.6,28.14,1.22,42.21,1.85l3.81.17.04,19.72-4.21-.21Z"/>
      <path class="cls-9" d="M1663.33,443.4c-10.58-.64-15.87-.95-26.45-1.56l-3.02-.17-.66-2.95c-2.13-9.52-4.26-19.04-6.4-28.57-.12-.22-.42-.68-1.11-1.37-.42-.42-1.51-1.3-4.08-2.51-2.17-1.02-5.11-2.02-8.73-2.99-2.88-.76-6.42-1.43-10.56-1.99-2.51,11.61-5.04,23.21-7.56,34.82l-.72,3.33-3.4-.18c-10.58-.57-15.88-.85-26.46-1.39l-4.73-.24,1.04-4.62c8.98-40.12,18.03-80.91,26.9-121.28-.27-.41-.59-.82-.96-1.23-.5-.54-.98-1.11-1.43-1.66-.45-.53-.87-1.04-1.21-1.39-.5-.51-1.2-1.09-1.94-1.71-.44-.36-.87-.72-1.29-1.08l-8.04-7.01h64.87l.68,3.16c9.85,45.57,19.75,91.93,29.43,137.8l1.08,5.13-5.24-.31ZM1606.3,380.97c5.61.19,9.82.34,15.37.53-2.58-12.28-5.16-24.57-7.75-36.85-2.54,12.11-5.08,24.21-7.63,36.32Z"/>
      <path class="cls-9" d="M1771.09,450.36c-10.48-.73-15.71-1.08-26.19-1.78l-2.54-.17-.92-2.38c-9.19-23.73-18.55-47.62-27.96-71.34l.1,71.83-4.26-.27c-11.07-.71-16.61-1.06-27.68-1.74l-3.75-.23-.2-130.06c0-.16-.06-.78-.79-1.98-.69-1.14-1.74-2.27-2.77-3.31l-.52-.53c-1.15-1.17-2.46-2.51-3.88-3.68l-8.62-7.09h49.49l1.01,2.5c9.34,23.04,18.72,46.45,28,69.89l-.09-72.39h35.71l.15,153.03-4.28-.3Z"/>
      <path class="cls-9" d="M1848.67,455.99c-9.8-.75-19.6-1.48-29.39-2.19l-3.71-.27-.08-134.74-28.95-.19v-3.97c0-.25-.08-.96-.83-2.27-.64-1.11-1.53-2.23-2.72-3.44-1.35-1.37-2.81-2.82-4.48-4.27l-8.12-7.03h115.44v31.71l-7.91.87c-.43-1.95-1.56-3.45-3.57-4.72-2.53-1.61-5.49-2.89-8.8-3.79-3.46-.95-6.94-1.59-10.34-1.92-1.09-.11-2.13-.21-3.13-.3.17.3.32.6.47.91l.37.8.04,135.14-4.3-.33Z"/>
    </g>
    <g>
      <path class="cls-16" d="M43.42,315.42c0-1.31-.46-2.79-1.36-4.43-.9-1.64-2.16-3.12-3.34-4.43-1.33-1.48-2.89-3.29-4.7-4.94h87.34c0,10.61-.01,15.92-.02,26.53,0-.63-.41-1.69-1.23-3.18-.82-1.49-2.72-3.01-5.69-4.57-2.97-1.56-7.38-2.91-13.23-4.06-5.86-1.15-13.9-1.71-24.12-1.64-5.34.13-8.02.2-13.36.33,1.65.8,3.26,1.67,4.7,2.64,1.14.77,2.19,1.8,3.09,3.01.9,1.2,1.36,2.45,1.36,3.75,0,14.07-.01,28.14-.02,42.21,11.21-.36,22.42-.72,33.63-1.08,0,10.59-.01,15.89-.02,26.48,0,.29,0,.43,0,.72,0-.29,0-.43,0-.72,0-.63-.33-1.58-.99-2.82-.66-1.24-2.06-2.5-4.2-3.77-2.14-1.27-5.36-2.45-9.64-3.56-4.29-1.11-10.06-1.77-17.31-1.97-.59.02-.89.03-1.48.06,0,23.86-.02,47.71-.03,71.57-9.8.74-19.6,1.49-29.4,2.25,0-46.13,0-92.26.01-138.39Z"/>
      <path class="cls-16" d="M198.8,301.63c9.56,0,16.95,2.77,22.13,8.25,5.19,5.48,7.77,13.08,7.76,22.84-.01,6.67-.02,10-.03,16.67,0,4.21-.55,8.43-1.63,12.66-1.08,4.24-2.69,8.12-4.84,11.65-2.15,3.54-4.79,6.53-7.93,8.99-3.14,2.46-6.68,4-10.64,4.61,3.13,2.01,5.64,4.06,7.53,6.18,1.89,2.11,3.47,4.07,4.57,5.81,1.16,1.86,2.05,3.76,2.71,5.54,5.15,11.91,10.32,23.81,15.52,35.69-10.47.64-20.94,1.3-31.4,1.98-5.04-11.44-10.05-22.9-15.04-34.37-.49-1.5-1.32-3.08-2.47-4.7-1.15-1.63-2.47-3.18-3.95-4.65-1.48-1.47-3.05-2.78-4.69-3.94-1.64-1.16-3.3-1.94-4.94-2.33-.02,17.34-.04,34.69-.06,52.03-9.81.66-19.61,1.32-29.42,2.01.04-43.93.08-87.86.13-131.78,0-1.25-.45-2.66-1.36-4.21-.9-1.56-2.16-2.97-3.34-4.22-1.33-1.41-2.88-3.13-4.7-4.7h66.07ZM162.42,314.4c1.65.77,3.26,1.6,4.7,2.52,1.14.73,2.18,1.72,3.09,2.87.9,1.15,1.36,2.34,1.36,3.57-.02,18.19-.04,36.38-.06,54.57,7.22-.26,10.83-.39,18.05-.64,1.32-.05,2.56-.66,3.71-1.85,1.15-1.18,2.19-2.59,3.1-4.22.91-1.63,1.61-3.33,2.11-5.09.5-1.76.75-3.25.75-4.47.02-12.86.03-25.72.05-38.58,0-2.59-.94-4.71-2.84-6.37-1.89-1.66-4.16-2.49-6.8-2.48-10.89.06-16.33.1-27.22.16Z"/>
      <path class="cls-16" d="M244.35,439.88c9.12-42.86,18.35-85.71,27.67-128.53-.49-1.18-1.23-2.32-2.22-3.42-.99-1.1-1.89-2.33-2.72-3.21-.97-1.03-2.31-2.06-3.46-3.1h50.97c9.55,44.24,19.19,88.46,28.93,132.65-10.59.55-15.88.84-26.47,1.41-2.13-9.31-4.26-18.61-6.38-27.92-.33-.86-1.03-1.77-2.1-2.74-1.07-.97-2.8-1.92-5.19-2.83-2.39-.92-5.52-1.74-9.39-2.45-3.87-.72-8.78-1.18-14.71-1.37-2.84,13.31-5.66,26.62-8.48,39.93-10.58.62-15.88.93-26.46,1.58ZM306.77,385.07c-4.18-19.93-8.35-39.86-12.51-59.79-4.26,20.22-8.5,40.44-12.73,60.67,10.09-.36,15.14-.54,25.23-.88Z"/>
      <path class="cls-16" d="M343.53,313.43c0-1.14-.45-2.43-1.35-3.86-.9-1.43-2.08-2.71-3.33-3.86-1.32-1.22-2.88-2.65-4.69-4.09,33.57,0,67.14,0,100.71,0-.02,9.3-.03,13.95-.05,23.24-.66-2.49-2.43-4.48-5.31-5.99-2.88-1.51-6.18-2.67-9.89-3.49-3.71-.82-7.38-1.36-11.01-1.62-3.63-.26-6.6-.46-8.91-.59-2.47.01-3.71.02-6.19.03.82.28,2.23.97,4.2,2.09,1.98,1.11,3.37,2.44,4.2,3.97-.08,37.37-.16,74.75-.24,112.12-9.81.46-19.63.94-29.44,1.43.08-39.84.16-79.68.25-119.51-9.65.04-19.3.09-28.95.13Z"/>
      <path class="cls-16" d="M512.3,301.63c9.56,0,16.95,2.46,22.13,7.34,5.19,4.88,7.77,11.65,7.75,20.34-.01,5.94-.02,8.91-.03,14.84,0,3.75-.55,7.5-1.63,11.26-1.08,3.76-2.7,7.2-4.85,10.32-2.15,3.12-4.8,5.76-7.94,7.9-3.14,2.15-6.69,3.47-10.65,3.97,3.13,1.82,5.64,3.67,7.54,5.58,1.89,1.9,3.47,3.65,4.57,5.23,1.16,1.66,2.05,3.37,2.71,4.96,5.16,10.69,10.33,21.37,15.53,32.04-10.48.36-20.96.74-31.43,1.14-5.02-10.23-10.03-20.46-15.03-30.69-.49-1.34-1.32-2.74-2.47-4.2-1.15-1.46-2.47-2.85-3.95-4.16-1.48-1.31-3.05-2.5-4.69-3.54-1.65-1.04-3.3-1.75-4.94-2.12-.03,15.31-.07,30.61-.1,45.92-9.82.39-19.63.8-29.45,1.22.08-38.6.17-77.2.25-115.8,0-1.1-.45-2.34-1.35-3.71s-2.15-2.6-3.33-3.71c-1.32-1.23-2.88-2.75-4.69-4.13h66.07ZM475.91,312.89c1.65.68,3.25,1.41,4.7,2.23,1.14.65,2.18,1.52,3.09,2.54.9,1.01,1.36,2.07,1.35,3.16-.03,16.05-.07,32.11-.1,48.16,7.23-.16,10.84-.23,18.06-.38,1.32-.03,2.56-.56,3.72-1.6,1.15-1.04,2.19-2.27,3.1-3.71.91-1.43,1.61-2.93,2.11-4.49.5-1.56.75-2.88.75-3.96.02-11.4.05-22.8.07-34.19,0-2.29-.94-4.18-2.83-5.65-1.89-1.48-4.16-2.21-6.8-2.2-10.89.04-16.33.06-27.22.1Z"/>
      <path class="cls-16" d="M561.52,312.8c0-1.06-.45-2.26-1.35-3.59-.9-1.33-2.14-2.51-3.33-3.59-1.31-1.19-2.88-2.66-4.69-4h38.85c-.08,40.78-.16,81.56-.24,122.34-9.82.31-19.64.62-29.46.96.08-37.37.15-74.75.23-112.12Z"/>
      <path class="cls-16" d="M610.73,328.81c.02-8.54,2.63-15.21,7.83-20.01,5.2-4.79,12.59-7.18,22.16-7.18h26.72c9.73,0,17.15,2.36,22.26,7.07,5.1,4.7,7.65,11.24,7.64,19.62-.02,10.29-.02,15.43-.04,25.72-5.61-2.27-11.09-4.25-16.45-5.95-5.36-1.7-9.69-3.05-12.99-4.06.02-9.65.02-14.47.04-24.12,0-2.2-.9-4.02-2.71-5.44-1.81-1.42-4.12-2.13-6.92-2.13-10.89.02-16.33.04-27.22.06,1.81.65,3.4,1.44,4.7,2.14,1.24.67,2.43,1.46,3.34,2.44.9.97,1.36,1.99,1.36,3.03-.05,28.24-.1,56.47-.15,84.71.16,1.95,1.15,3.59,2.96,4.92,1.81,1.32,3.96,1.96,6.43,1.9,3.37-.08,5.05-.12,8.42-.2,2.8-.07,5.11-.83,6.94-2.3,1.82-1.47,2.73-3.24,2.73-5.31l.06-33.45c3.3,1.12,6.47,2.24,9.52,3.36,3.05,1.12,5.65,2.18,7.79,3.18,4.78,2.39,7.91,4.82,9.39,7.31,1.48,2.49,2.38,4.38,2.71,5.66,0,1.86,0,2.78,0,4.64-.01,7.99-2.58,14.48-7.71,19.5-5.13,5.02-12.56,7.65-22.29,7.89-10.7.26-16.04.4-26.74.69-9.57.26-16.95-2.01-22.14-6.85-5.19-4.84-7.78-11.34-7.76-19.49.04-22.46.08-44.91.13-67.37Z"/>
      <path class="cls-16" d="M718.15,312.42c0-1.03-.45-2.18-1.36-3.47-.9-1.28-2.14-2.43-3.34-3.47-1.31-1.14-2.88-2.57-4.7-3.86h38.85c-.05,39.5-.1,79-.15,118.5-9.82.17-19.64.36-29.46.56.05-36.09.1-72.18.16-108.27Z"/>
      <path class="cls-16" d="M768.38,309.08c0-1.02-.45-2.01-1.36-2.96-.91-.96-2.09-1.73-3.34-2.39-1.3-.69-2.89-1.46-4.7-2.1h66.07c9.56,0,16.95,2.31,22.14,6.92,5.19,4.61,7.79,11.02,7.78,19.22-.01,21.59-.03,43.19-.04,64.78,0,7.83-2.61,14.16-7.81,19.01-5.2,4.85-12.6,7.32-22.17,7.43-18.9.22-37.8.48-56.7.78.04-36.9.09-73.79.13-110.69ZM788.42,312.11c1.81.64,3.4,1.41,4.7,2.09,1.25.66,2.43,1.43,3.34,2.38.9.95,1.36,1.94,1.36,2.95-.03,29.78-.06,59.55-.09,89.33,7.23-.09,10.84-.13,18.07-.21,2.64-.03,4.87-.75,6.69-2.16,1.82-1.41,2.73-3.13,2.73-5.16.02-27.28.05-54.57.07-81.85,0-2.15-.91-3.92-2.72-5.31-1.81-1.39-4.04-2.09-6.68-2.08-10.99.01-16.48.02-27.47.03Z"/>
      <path class="cls-16" d="M875.77,312.22c0-1.01-.46-2.15-1.36-3.4-.9-1.26-2.14-2.38-3.34-3.4-1.31-1.12-2.89-2.52-4.7-3.78h87.35c0,8.45,0,12.68,0,21.13,0-.5-.41-1.35-1.24-2.55-.82-1.19-2.72-2.42-5.69-3.68-2.97-1.26-7.38-2.36-13.24-3.3-5.86-.94-13.9-1.41-24.13-1.41-5.35.08-8.02.12-13.36.19,1.65.63,3.25,1.31,4.7,2.08,1.14.6,2.19,1.42,3.09,2.36.9.94,1.36,1.92,1.36,2.93,0,10.96,0,21.91-.01,32.87,11.22-.02,22.44-.03,33.66-.04,0,8.38,0,12.57,0,20.95,0-.5-.33-1.26-.99-2.26-.66-1-2.07-2.04-4.21-3.11-2.14-1.07-5.37-2.1-9.65-3.1-4.29-1-10.07-1.68-17.33-2.04-.59,0-.89,0-1.48,0,0,15.17-.01,30.35-.02,45.52,16.18-.06,32.35-.1,48.53-.11,0,4.08,0,6.11,0,10.19-26,.02-52,.12-78,.29.02-35.44.04-70.87.06-106.31Z"/>
      <path class="cls-16" d="M1037.85,327.73c0-8.2,2.59-14.59,7.78-19.19,5.19-4.6,12.57-6.91,22.14-6.91h26.72c9.73,0,17.16,2.31,22.28,6.95,5.11,4.64,7.68,11.09,7.69,19.35,0,8.39.01,12.58.02,20.97-4.95-2.7-10.2-5.04-15.72-7.03-5.53-1.99-10.11-3.49-13.74-4.52,0-7.14,0-10.72-.02-17.86,0-2.15-.91-3.93-2.73-5.32-1.81-1.39-4.13-2.09-6.93-2.1-10.89-.01-16.33-.02-27.22-.02,1.81.63,3.4,1.4,4.7,2.09,1.25.66,2.44,1.42,3.34,2.37.91.95,1.36,1.93,1.36,2.94,0,9.86.01,14.78.02,24.64,2.8,1.15,5.99,2.4,9.41,3.83,2.95,1.23,6.48,2.71,10.52,4.32,4.04,1.6,8.46,3.43,13.25,5.48,1.15.39,2.31.9,3.47,1.54,3.96,1.8,7.88,4.11,11.76,6.93,3.88,2.82,6.4,6.08,7.56,9.78.16.26.29,1.18.37,2.77.08,1.59.17,3.37.25,5.34.09,1.97.17,3.94.25,5.91.09,1.97.13,3.53.13,4.67,0-.61,0-.91,0-1.52,0,1.22,0,1.83,0,3.05,0-.61,0-.91,0-1.52-.32,7.5-3.04,13.47-8.15,17.91-5.11,4.44-12.37,6.6-21.78,6.49-10.7-.12-16.05-.18-26.74-.28-9.58-.09-16.96-2.55-22.17-7.38-5.2-4.83-7.81-11.15-7.81-18.97,0-9.68,0-14.53-.01-24.21,2.64.77,6.52,2.01,11.64,3.74,5.12,1.73,11.14,4,18.08,6.82,0,9.1,0,13.65.02,22.74.16,1.9,1.16,3.52,2.97,4.86,1.82,1.34,3.96,2.03,6.44,2.05,3.37.03,5.05.05,8.42.08,2.81.03,5.11-.64,6.93-2.02,1.81-1.37,2.72-3.07,2.72-5.1,0-8.51-.01-12.77-.02-21.28-.17-1.52-.64-3.2-1.49-4.76-.75-1.38-2.07-2.93-3.72-4.58-1.65-1.65-4.05-3.25-7.18-4.79-1.82-1.02-5.16-2.47-10.03-4.32-4.87-1.86-9.95-3.74-15.23-5.66-5.94-2.16-12.46-4.52-19.56-7.07,0-8.47,0-12.71-.01-21.18Z"/>
      <path class="cls-16" d="M1137.19,419.61c9.15-36.51,18.26-73.02,27.34-109.55-.5-1.02-1.24-2.01-2.23-2.97-.99-.96-1.9-2.03-2.73-2.78-.99-.9-2.31-1.79-3.47-2.68h50.97c9.84,39.96,19.64,79.93,29.39,119.91-10.6-.25-15.89-.37-26.49-.6-2.59-10.09-3.89-15.14-6.48-25.21-.33-.78-1.04-1.63-2.11-2.54-1.07-.92-2.81-1.85-5.2-2.78-2.39-.93-5.53-1.81-9.41-2.64-3.88-.82-8.79-1.47-14.73-1.93-2.79,11.4-5.58,22.79-8.37,34.19-10.6-.19-15.9-.27-26.49-.43ZM1199.52,375.44c-4.23-17.68-8.46-35.36-12.7-53.04-4.18,17.58-8.36,35.16-12.55,52.73,10.1.12,15.15.18,25.25.3Z"/>
      <path class="cls-16" d="M1254.61,312.53c0-1.04-.46-2.21-1.37-3.51-.91-1.3-2.15-2.46-3.35-3.51-1.32-1.16-2.89-2.59-4.71-3.89h35.63c13.34,28.3,26.59,56.64,39.75,85.03-1.6-8.18-2.4-12.27-4-20.43-.04-21.53-.08-43.06-.12-64.6h27.71c.08,40.99.16,81.97.25,122.96-10.49-.34-15.74-.51-26.24-.83-13.24-28.81-26.58-57.58-40.01-86.3,1.7,8.08,2.55,12.12,4.24,20.22.04,21.68.08,43.37.12,65.05-11.09-.31-16.64-.45-27.73-.73-.06-36.48-.12-72.97-.19-109.45Z"/>
      <path class="cls-16" d="M1364.01,329.23c-.02-8.67,2.57-15.42,7.75-20.29,5.18-4.87,12.56-7.32,22.13-7.32h26.72c9.73,0,17.16,2.48,22.29,7.48,5.12,5,7.7,11.97,7.71,20.87.01,6.16.02,9.24.03,15.4-4.96-2.95-10.2-5.51-15.73-7.68-5.53-2.18-10.12-3.82-13.74-4.94-.01-4.8-.02-7.2-.03-12,0-2.3-.92-4.21-2.73-5.71-1.82-1.5-4.13-2.25-6.93-2.26-10.89-.04-16.33-.06-27.22-.09,1.82.68,3.4,1.5,4.71,2.23,1.24.7,2.44,1.52,3.35,2.53.91,1.01,1.37,2.06,1.37,3.13.06,29.12.12,58.24.18,87.36.17,2.02,1.16,3.77,2.98,5.24,1.82,1.47,3.96,2.26,6.44,2.34,3.86.13,5.79.2,9.65.34,2.8.1,5.11-.56,6.93-1.99,1.81-1.43,2.71-3.23,2.71-5.4-.02-9.91-.04-19.81-.06-29.72,0-.41-.25-.99-.75-1.75-.5-.76-1.36-1.59-2.6-2.5-1.24-.91-2.98-1.86-5.2-2.86-2.23-.99-5.08-1.86-8.54-2.61-.01-5.26-.02-7.9-.03-13.16,15.1.25,30.19.51,45.28.78.03,14.51.06,29.03.09,43.54.02,8.49-2.53,15.25-7.63,20.24-5.1,4.99-12.52,7.27-22.26,6.89-10.69-.42-16.04-.62-26.73-1.02-9.57-.35-16.96-3.17-22.17-8.42-5.21-5.25-7.82-11.99-7.84-20.26-.05-22.8-.09-45.61-.14-68.41Z"/>
      <path class="cls-16" d="M1471.37,313.21c0-1.1-.46-2.35-1.37-3.73-.91-1.38-2.16-2.61-3.35-3.73-1.32-1.23-2.89-2.75-4.71-4.13h38.85c.08,39.22.17,78.44.25,117.65,15.34.65,30.68,1.33,46.02,2.02,0,4.68.01,7.01.02,11.69-25.15-1.25-50.31-2.43-75.46-3.54-.08-38.75-.16-77.49-.25-116.24Z"/>
      <path class="cls-16" d="M1564.39,433.87c9.15-40.89,18.23-81.8,27.22-122.72-.5-1.15-1.24-2.28-2.23-3.36-.99-1.08-1.9-2.28-2.73-3.14-.98-1.01-2.32-2.02-3.47-3.02h50.97c9.92,45.9,19.73,91.83,29.42,137.78-10.58-.64-15.88-.95-26.46-1.56-2.15-9.65-4.32-19.3-6.48-28.95-.33-.89-1.03-1.88-2.11-2.95-1.07-1.07-2.81-2.17-5.2-3.3-2.39-1.12-5.53-2.2-9.41-3.23-3.88-1.03-8.78-1.88-14.72-2.54-2.77,12.8-5.55,25.59-8.34,38.38-10.59-.57-15.88-.85-26.47-1.39ZM1626.63,385.68c-4.22-20.16-8.47-40.32-12.73-60.47-4.15,19.87-8.32,39.74-12.5,59.6,10.09.34,15.14.52,25.23.87Z"/>
      <path class="cls-16" d="M1681.68,314.21c0-1.2-.46-2.55-1.37-4.05-.91-1.5-2.16-2.85-3.35-4.05-1.33-1.35-2.89-2.99-4.71-4.49h35.63c13.43,33.12,26.66,66.31,39.7,99.59-1.59-9.62-2.39-14.41-3.98-23.99-.03-25.2-.06-50.39-.09-75.59h27.71c.05,48.25.09,96.5.14,144.74-10.48-.73-15.72-1.08-26.2-1.79-13.12-33.88-26.43-67.67-39.94-101.4,1.7,9.39,2.54,14.09,4.24,23.52.04,25.18.07,50.37.1,75.55-11.08-.71-16.61-1.06-27.69-1.74-.07-42.1-.13-84.2-.2-126.3Z"/>
      <path class="cls-16" d="M1790.54,314.63c0-1.26-.46-2.68-1.36-4.26-.91-1.57-2.1-3-3.34-4.26-1.32-1.34-2.89-2.91-4.71-4.48,33.57,0,67.14,0,100.71,0,0,11.09,0,16.63,0,27.71-.66-2.98-2.44-5.39-5.32-7.23-2.88-1.84-6.18-3.27-9.9-4.28-3.71-1.01-7.39-1.69-11.01-2.04-3.63-.35-6.6-.61-8.91-.79-2.47-.02-3.71-.02-6.19-.04.82.33,2.23,1.15,4.21,2.46,1.98,1.31,3.38,2.87,4.21,4.66.01,43.31.03,86.62.04,129.94-9.8-.75-19.6-1.48-29.41-2.19-.03-45-.05-90-.08-134.99-9.65-.06-19.3-.12-28.95-.19Z"/>
    </g>
  </g>
</svg>