<?xml version="1.0" encoding="utf-8"?>
<!-- Generator: Adobe Illustrator 27.3.1, SVG Export Plug-In . SVG Version: 6.00 Build 0)  -->
<svg version="1.1" id="Layer_1" xmlns="http://www.w3.org/2000/svg" xmlns:xlink="http://www.w3.org/1999/xlink" x="0px" y="0px"
	 viewBox="0 0 1000 607" style="enable-background:new 0 0 1000 607;" xml:space="preserve">
<style type="text/css">
	.st0{fill-rule:evenodd;clip-rule:evenodd;fill:#FEA60B;}
</style>
<g>
	<path class="st0" d="M614.9,45.6v0.1c-4.1-2.4-8.2-4.7-12.4-6.8c-24.1-12.3-50.9-20.3-79.1-23.3c-7.6-0.8-15.4-1.2-23.4-1.2
		c-22.7,0-44.6,3.4-65.3,9.6c-93.1,28-160.9,114.4-160.9,216.6s67.8,188.6,160.9,216.6c20.7,6.2,42.6,9.6,65.3,9.6
		c8,0,15.8-0.4,23.6-1.2c28.1-2.9,54.7-11,78.9-23.3c4.2-2.2,8.4-4.4,12.4-6.9c66.6-39.4,111.3-111.9,111.3-194.9
		S681.5,85,614.9,45.6z M412.3,57.5c0,0,10.5-11.3,19.7,2c0,0-0.8-8.7-8.5-12.8c3.7-1.4,7.5-2.9,11.2-4.1c3.9-1.3,7.8-2.5,11.8-3.5
		c-2.2,3.4-3.8,7.8-4,13.7c0,0,0.3,15.6,16.9,30.3c0,0-11.7-2.2-24.8-4.9c-5.3-1.1-10.8-2.3-15.9-3.4
		C418.7,74.8,404.1,67.1,412.3,57.5z M456.4,378.1c0,0-5.1,15.3-21.4,20.3l-0.4,0.1v0c-3.3,0.4-22.5,2.4-43.2-2c0,0-38.3-5-59-34.3
		c0,0-5.4-4.7-14.6-18.6v0.2c-17-30.2-26.6-65.1-26.6-102.3c0-78.6,43.3-147.1,107.4-182.9c0,2.7,0.5,6,1.9,9.9
		c0,0,4.4,13.3,33.5,22.3c0,0-43-3.7-61.7,12c0,0-8.8,8-12.2,14.6c0,0-13.9,23.3-25.8,8.6c0,0-4.1,12,9.1,20
		c0,0-19.7,12.6-19.3,42.9c0,0-0.3,34.3-2.4,44.2c0,0-5.1,31.6-25.4,28.6c0,0,13.2,16.6,40-3.7c0,0,12.5,35.3,25.8,47.6
		c0,0-5.4,16-0.7,25.3c0,0,6.8,33.9-24.4,18.3c0,0,4.7,15.3,29.8,9c0,0,10.2-2,8.5-20c0,0,7.8-11.3,11.9-6.7c0,0,0,0.3,6.4,5.3
		c0,0-1.7,8.3,3.4,17c0,0,1.4,10.6-2,12.6c0,0,7.1,1.3,14.9-11.6c0,0,1.7-5,5.1-6c0,0,10.2,5.5,19.7,8.6c3.4,1.1,6.8,1.9,9.5,2.1
		C444.2,359.5,462.8,366.8,456.4,378.1z M645.7,392.4c2-3.5,16.1-29.8,7.2-59.8c0,0-5.4-24-27.4-46.6c0,0-3.9-3.7-10.6-8.5
		c-3.4-2.5-7.6-5.2-12.4-7.9c-5.9-3.4-12.8-6.6-20.3-9.2c0,0-15.9-6-47.8-1.3c0,0-4.2,0.3-10.8,0.5c-14.1,0.5-39.1,0.7-55.3-3.2
		c0,0-19.7-1.7-33.6-16c-2.5-2.6-4.9-5.6-6.8-9.1c0,0-9.5-20.3,1.4-37.9c0,0-14.9-21.6,2-31.9c0,0,0.2,11.9,3.3,21.1v0.1
		c1.4,4,3.4,7.5,6.1,9.2c0,0,12.9,10.6,30.5,7.7c0,0,12.9-4.3,19-11.6c0,0,8.8-7.7,28.8,3c0,0,1.7,0.8,4.5,2.4
		c8.9,5,29.5,17.9,47.5,40.3c0,0,7.1-2,15.9,3c0,0,6.9,2.8,15.7,2.7c3.9,0,8.2-0.6,12.4-2.2v0c3.9-1.4,7.7-3.8,11.2-7.2
		c0,0,9.5,10.3,18,47.2c0,0,9.4,43,38.1,31c-1.9,0.6-15.3,4-27.6-20.4c0,0,13.9,8.7,34.2,3c0,0,13.6-4,13.6-17
		c0,0,2.7-13.6-13.9-19.6c0,0,15.9,9.3,8.1,25.3c0,0-6.8,10.3-23.7,8c0,0-11.8,2.7-24.7-15.3c0,0-6.4-16.9-10.5-31.9
		c0,0-7.5-22.2-19.7-28.9c0,0,18-4.3,19.7,6.3c0,0,0,4.3,2,4.3c0,0,6.4-3.9,4.6-11l-0.2-0.7c0,0,5.6-0.3,4.7-7.8
		c0,0-0.4-4.2,3.4-7.1c0,0,6.8-1.3-4.5-11.3c0,0,2-2.2,8.1-1.1c0,0,4.3,2.2,1.1-3.8c0,0-4.5-9.1-14-12.2c0,0-3.2-2.4-7,1.8
		c0,0-6.4,4.4-13.6,0.4c0,0-3.6-1.4-7.5-3.3v-0.1c-2-0.9-4.1-2-5.7-3.1c0,0-1.1-1.3-6.7-2.4c-1.3-0.3-2.7-0.5-4.6-0.6
		c0,0-16.3-4.2-26-18.2c0,0-5.4-8.5,3.2-10.9c0,0,7.7-1.8,12.9,0.2c0,0-3.8-16.2-20.3-24.2c0,0-5.9-2.7-17.2,0.2
		c0,0,0.7-18-12.2-19.3c0,0-7,0.4-14.8,0.2c-6.2-0.1-13-0.6-17.3-2c0,0-7.2,0-10.2-7.8c0,0-5.4,1.8-8.2,7.1c0,0-4.1-8.6-23.4-9.3
		c0,0-12.9-5.7-11.5-24c0,0,2.4-15.6,15.9-15.6c0,0,12.5-1.7,16.9,13.6c0,0,4-10.6-4.8-16.9c6.4-0.6,13-0.9,19.5-0.9
		c7.8,0,15.5,0.4,23,1.3c28.4,3.1,55.2,12,79.1,25.3c4.2,2.4,8.4,4.9,12.4,7.5c57.2,37.4,95.1,102,95.1,175.5
		C710,300.8,685.3,354.3,645.7,392.4z M616.4,179.4c-0.5-0.1-1-0.2-1.5-0.3c-8.7-1.4-11,1.8-10.8,1.8c-0.5,0.6-1,1.2-1.5,1.7
		c-3.3,3.2-6.8,2.5-6.8,2.5c-7.9-2-7.2-7.3-7.2-7.3c0-10.6,11.5-8.4,11.5-8.4c0.9,0,1.6,0,2.4,0.1c6.7,0.7,10.5,4.6,12.4,7.3v0.1
		C616,178.3,616.4,179.4,616.4,179.4z M622.7,221.5c-1.6,2.7-5.1,4.3-7.8,5.3c-2.2,0.8-3.9,1.1-3.9,1.1c-7.7-5.1-1.4-16.6-1.4-16.6
		c1.7,0.8,3.6,2,5.3,3.3C619.1,217.7,622.7,221.5,622.7,221.5z M602.6,206.6c0.8,0.4,1.6,0.6,2.4,0.9c0,0-1.4,1.4-2.4,3.9
		c-1,2.3-1.5,5.6,0,9.5c0.8,2.2,2.2,4.5,4.4,7c0,0-1.6,0.3-4.4,0.3c-6.6,0-20.1-1.7-35-13.9c0,0-22.7-17.2-44.1-29.7
		c-9.6-5.6-18.9-10.3-25.8-12c0,0,11.8-10.4,25.9-13.6c4.1-0.9,8.5-1.2,12.8-0.5c0,0,11.1,1.8,20.8,11.1
		C557.2,169.6,583,198.6,602.6,206.6z M525.1,138.2c0,0-0.5-0.1-1.5-0.4c-4-1.2-15.7-4.1-26.2-5.4c0,0-1.6-14.6,15.8-14.6
		c0,0,3.9-0.5,10.3,2.9v-0.1c1.7,0.9,3.6,2.1,5.6,3.7c0,0,12.2,11.3,20.6,13.5C549.7,137.8,539.1,141.7,525.1,138.2z"/>
	<g>
		<path class="st0" d="M142.7,593.4c0-1.7-1.7-2.1-1.7-2.1l-4.2-0.6c-1.5,0-1.7-3.1-1.7-3.1v-78.3c0-3.3,2.9-3.9,2.9-3.9l3.9-0.2
			c1.4,0,0.8-3.1,0.8-3.1c0-0.8-1-1.5-1-1.5h-27.1l-16.1,50.8l-16.1-50.8H55.2c0,0-1,0.8-1,1.5c0,0-0.6,3.1,0.8,3.1l3.9,0.2
			c0,0,2.9,0.6,2.9,3.9v78.3c0,0-0.2,3.1-1.7,3.1l-4.3,0.6c0,0-1.7,0.4-1.7,2.1c0,0-0.6,2.5,1.2,2.5H86c0,0,1.5-0.2,1.5-2.1
			c0,0,0.2-2.5-1.9-2.5l-4.3-0.4c0,0-1.7-0.2-1.7-2.9v-44.1l18.8,55.2l18.7-55.2V588c0,2.7-1.7,2.9-1.7,2.9l-4.3,0.4
			c-2.1,0-1.9,2.5-1.9,2.5c0,1.9,1.5,2.1,1.5,2.1h30.7C143.2,595.9,142.7,593.4,142.7,593.4z"/>
		<path class="st0" d="M737.1,593.4c0-1.7-1.7-2.1-1.7-2.1l-4.3-0.6c-1.5,0-1.7-3.1-1.7-3.1v-78.3c0-3.3,2.9-3.9,2.9-3.9l3.9-0.2
			c1.4,0,0.8-3.1,0.8-3.1c0-0.8-1-1.5-1-1.5h-27l-16.1,50.8l-16.1-50.8h-27.1c0,0-1,0.8-1,1.5c0,0-0.6,3.1,0.8,3.1l3.9,0.2
			c0,0,2.9,0.6,2.9,3.9v78.3c0,0-0.2,3.1-1.7,3.1l-4.3,0.6c0,0-1.7,0.4-1.7,2.1c0,0-0.6,2.5,1.2,2.5h30.7c0,0,1.6-0.2,1.6-2.1
			c0,0,0.2-2.5-1.9-2.5l-4.2-0.4c0,0-1.7-0.2-1.7-2.9v-44.1l18.8,55.2l18.7-55.2V588c0,2.7-1.7,2.9-1.7,2.9l-4.2,0.4
			c-2.1,0-1.9,2.5-1.9,2.5c0,1.9,1.5,2.1,1.5,2.1h30.7C737.6,595.9,737.1,593.4,737.1,593.4z"/>
		<path class="st0" d="M198.8,503.3c-2.1-2.1-7.5-2.7-7.5-2.7h-32.1c0,0-5.4,0.6-7.5,2.7c0,0-4.4,2.3-4.4,9.1v73.4
			c0,0,0.2,4.4,3.3,7c0,0,3.9,3.3,6.2,3.3h18.8V596h18.2c2.3,0,6.2-3.3,6.2-3.3c3.1-2.5,3.3-7,3.3-7v-73.4
			C203.2,505.6,198.8,503.3,198.8,503.3z M185.2,580.8c0,1.3-1,2.3-2.3,2.3h-7.4v0.1h-7.3c-1.3,0-2.3-1-2.3-2.3v-65.7
			c0-1.3,1-2.3,2.3-2.3h7.4v-0.1h7.3c1.3,0,2.3,1,2.3,2.3V580.8z"/>
		<path class="st0" d="M639.4,503.3c-2.1-2.1-7.5-2.7-7.5-2.7h-32.1c0,0-5.4,0.6-7.5,2.7c0,0-4.4,2.3-4.4,9.1v73.4
			c0,0,0.2,4.4,3.3,7c0,0,3.9,3.3,6.2,3.3h18.8V596h18.3c2.3,0,6.2-3.3,6.2-3.3c3.1-2.5,3.3-7,3.3-7v-73.4
			C643.8,505.6,639.4,503.3,639.4,503.3z M625.9,580.8c0,1.3-1,2.3-2.3,2.3h-7.4v0.1h-7.4c-1.3,0-2.3-1-2.3-2.3v-65.7
			c0-1.3,1-2.3,2.3-2.3l7.4-0.1h7.4c1.3,0,2.3,1,2.3,2.3V580.8z"/>
		<path class="st0" d="M258.7,554.3c0,0,10.6,0.4,10.6-7.3v-36.7c0,0-0.6-9.1-11-9.1h-50c0,0-1.7,0.8-1.7,1.7c0,0-0.4,2.5,1.4,2.5
			c0,0,6-0.2,6,3.3v80c0,0-0.6,1.5-1.9,1.5l-3.9,1c0,0-1.9,0.6-1.9,2.1c0,0-0.2,2.5,1.4,2.5h30.9c0,0,1.7-0.4,1.7-1.7
			c0,0,0.2-3.1-1.7-3.1l-3.9-0.2c0,0-2.3-1-2.3-2.9v-35.4c0,0,4.4,2,9.9,6.2v0.2c6.4,4.9,14.4,12.7,19.2,23.8c0,0,0.6,2.7,0,5.4
			c0,0-1,3.3-5.8,3.3c0,0-1.9,0-1.9,2.1c0,0-0.2,1.9,1.4,1.9h18.6c0,0,3.5,0.4,4.3-3.3C278,592.2,284.4,573.7,258.7,554.3z
			 M252.5,542.2c-0.5,2.3-2.1,5-6.4,5c0,0-1.5,0.3-3.8,0.7v0c-2.3,0.4-5.3,1-8.1,1.5c-1.1-0.2-1.9-1.1-1.9-2.2v-32.5
			c0-1.3,1-2.3,2.3-2.3h15.6c1.3,0,2.3,1,2.3,2.3V542.2z"/>
		<path class="st0" d="M335,515.3v-11.8c0-2.7-2.3-2.5-2.3-2.5h-54.1c0,0-2.3-0.2-2.3,2.5v11.8c0,0-0.2,2.5,0.8,2.5h2.3
			c0,0,1.7,0.4,1.7-1c0,0,0.4-3.1,2.9-3.1h12.2v74.4c0,0-0.4,2.3-2.1,2.3l-3.1,0.8c0,0-2.1,0.4-2.1,1.7c0,0-0.6,2.5,0.6,2.5h32.4
			c1.2,0,0.6-2.5,0.6-2.5c0-1.4-2.1-1.7-2.1-1.7l-3.1-0.8c-1.7,0-2.1-2.3-2.1-2.3v-74.4h12.2c2.5,0,2.9,3.1,2.9,3.1
			c0,1.4,1.7,1,1.7,1h2.3C335.2,517.8,335,515.3,335,515.3z"/>
		<path class="st0" d="M946,515.3v-11.8c0-2.7-2.3-2.5-2.3-2.5h-54.1c0,0-2.3-0.2-2.3,2.5v11.8c0,0-0.2,2.5,0.8,2.5h2.3
			c0,0,1.7,0.4,1.7-1c0,0,0.4-3.1,2.9-3.1h12.2v74.4c0,0-0.4,2.3-2.1,2.3l-3.1,0.8c0,0-2.1,0.4-2.1,1.7c0,0-0.6,2.5,0.6,2.5h32.4
			c1.2,0,0.6-2.5,0.6-2.5c0-1.4-2.1-1.7-2.1-1.7l-3.1-0.8c-1.7,0-2.1-2.3-2.1-2.3v-74.4h12.2c2.5,0,2.9,3.1,2.9,3.1
			c0,1.4,1.7,1,1.7,1h2.3C946.2,517.8,946,515.3,946,515.3z"/>
		<path class="st0" d="M414.6,592.6c0-1.2-1.5-1.5-1.5-1.5l-3.9-0.6c-1.4,0-2.3-3.3-2.3-3.3L384.6,508c-0.6-2.3,1.9-2.3,1.9-2.3
			l2.7-0.4c1.9,0,1.5-2.3,1.5-2.3c0-1.4-1.5-1.5-1.5-1.5h-18.9v-0.1h-18.6c0,0-1.5,0.2-1.5,1.5c0,0-0.4,2.3,1.5,2.3l2.7,0.4
			c0,0,2.5,0,1.9,2.3l-22.2,79.2c0,0-1,3.3-2.3,3.3l-3.9,0.6c0,0-1.5,0.4-1.5,1.5c0,0-0.4,2.9,1.2,2.9h29.6c0,0,1.7-0.4,1.7-1.9
			c0,0,0.6-2.5-1.2-2.5l-3.3-0.4c0,0-1.9-1-1.2-2.5l7.3-24.4h9.7l10.1,0.1l7.3,24.4c0.8,1.5-1.2,2.5-1.2,2.5l-3.3,0.4
			c-1.7,0-1.2,2.5-1.2,2.5c0,1.5,1.7,1.9,1.7,1.9h29.6C415,595.5,414.6,592.6,414.6,592.6z M363,553l7-30.1l0.2,0.8v0.3l7.2,29H363z
			"/>
		<path class="st0" d="M895.8,592.6c0-1.2-1.6-1.5-1.6-1.5l-3.9-0.6c-1.4,0-2.3-3.3-2.3-3.3L865.8,508c-0.6-2.3,1.9-2.3,1.9-2.3
			l2.7-0.4c1.9,0,1.5-2.3,1.5-2.3c0-1.4-1.5-1.5-1.5-1.5h-18.9v-0.1h-18.6c0,0-1.5,0.2-1.5,1.5c0,0-0.4,2.3,1.5,2.3l2.7,0.4
			c0,0,2.5,0,1.9,2.3l-22.2,79.2c0,0-1,3.3-2.3,3.3l-3.9,0.6c0,0-1.5,0.4-1.5,1.5c0,0-0.4,2.9,1.2,2.9h29.6c0,0,1.7-0.4,1.7-1.9
			c0,0,0.6-2.5-1.2-2.5l-3.3-0.4c0,0-1.9-1-1.2-2.5l7.3-24.4h9.7l10.1,0.1l7.3,24.4c0.8,1.5-1.2,2.5-1.2,2.5l-3.3,0.4
			c-1.7,0-1.2,2.5-1.2,2.5c0,1.5,1.7,1.9,1.7,1.9h29.6C896.2,595.5,895.8,592.6,895.8,592.6z M844.3,553l7-30.1l0.1,0.4v0.7l7.2,29
			H844.3z"/>
		<path class="st0" d="M483.2,590.7l0.4,0.2v-15.3c0,0-0.2-1-2.5-1h-2.3c0,0-1.7-0.4-1.7,1c0,0-0.8,9.3-9.7,9.3H443v-76.3
			c0,0,0.8-1.7,2.3-1.7l3.5-0.8c0,0,2.3-0.8,2.3-2.3c0,0,1-2.7-2.3-2.7h-29.2c0,0-1.9,0-1.9,1.9c0,0-0.2,2.7,1,2.7l4.3,0.8
			c0,0,2.2,0.4,2.2,2.2V588c0,0-0.1,2.7-2.2,2.7l-3.5,0.8c0,0-1.9,0-1.9,1.4c0,0-0.6,2.9,1,2.9h61.1
			C479.6,595.7,483.2,595.3,483.2,590.7z"/>
		<path class="st0" d="M534.3,500.2h-29.2c0,0-2.1,0-2.1,1.4c0,0-0.4,3.7,1.4,3.7l3.3,0.4c0,0,2.8,0.6,2.8,2.8V587
			c0,0-0.3,3.1-2.6,3.1l-3.3,0.6c0,0-1.9,0-1.9,1.3c0,0-0.4,3.1,1.7,3.1H534c0,0,2.1-0.6,2.1-2.1c0,0,0.6-2.5-2.1-2.5l-3.3-0.4
			c0,0-1.9-1.7-1.9-3.9v-25.5l6.6-7.7l20.3,33.8c0,0,2.5,3.3-0.2,3.3l-2.1,0.4c0,0-1.9,0.2-1.9,1.4c0,0-0.4,3.1,1.2,3.1h29.9
			c0,0,1.2-0.4,1.2-1.9c0,0,0.8-2.7-1.9-2.7c0,0-4.4-0.6-6.2-4.4l-26.5-44.3c0,0-1.7-2.3,0.8-4.8l23.8-28.6c0,0,2.3-2.5,3.7-2.5
			l3.5-1c0,0,1.3-0.8,1.3-2.5c0,0,0-2.5-1.5-2.5h-29.6c0,0-1.9,0.6-1.9,1.9c0,0-0.2,3.5,1.2,3.5l4.6,0.4L529,535.8v-27.1
			c0,0,0.8-3.3,3.1-3.3l2.9-0.4c0,0,1.2-0.8,1.2-3.1C536.2,502,536.2,500.2,534.3,500.2z"/>
		<path class="st0" d="M797.5,544.7c0,0,6.4-1.9,6.4-5.4v-29.6c0,0-1-9.7-10.8-9.7h-50.5c0,0-1.5,0.4-1.5,1.9c0,0-0.2,2.9,1.4,2.9
			c0,0,6.2-0.2,6.2,3.3v78.6c0,0,0,3.3-2.5,3.3l-3.5,0.4c0,0-1.9,0.8-1.9,1.9c0,0-0.6,2.9,1.9,2.9H792c0,0,12,0.4,12-10.8v-30.1
			C804,554.3,804.6,546.6,797.5,544.7z M786.1,580c0,1.3-1,2.3-2.3,2.3H769c-1.3,0-2.3-1-2.3-2.3v-26.5c0-1.3,1-2.3,2.3-2.3h14.8
			c1.3,0,2.3,1,2.3,2.3V580z M786.1,536.3c0,1.3-1,2.3-2.3,2.3H769c-1.3,0-2.3-1-2.3-2.3v-22.2c0-1.3,1-2.3,2.3-2.3h14.8
			c1.3,0,2.3,1,2.3,2.3V536.3z"/>
	</g>
</g>
</svg>
